<?xml version="1.0" encoding="UTF-8"?>
<svg xmlns="http://www.w3.org/2000/svg" xmlns:xlink="http://www.w3.org/1999/xlink" width="288px" height="295.2px" viewBox="0 0 288 295.2" version="1.1" id="Fig:dens">
  <metadata xmlns:gridsvg="http://www.stat.auckland.ac.nz/~paul/R/gridSVG/">
    <gridsvg:generator name="gridSVG" version="1.7-5" time="2024-04-12 15:39:48.265442"/>
    <gridsvg:argument name="name" value="/Users/mariaingersoll/Desktop/BU_Research/Davies-Gilmore/Mengrui_HEK293T/HEK293T_RNAseq/arrayqualitymetrics_new/dens.svg"/>
    <gridsvg:argument name="exportCoords" value="none"/>
    <gridsvg:argument name="exportMappings" value="none"/>
    <gridsvg:argument name="exportJS" value="none"/>
    <gridsvg:argument name="res" value="72"/>
    <gridsvg:argument name="prefix" value="Fig:dens"/>
    <gridsvg:argument name="addClasses" value="FALSE"/>
    <gridsvg:argument name="indent" value="TRUE"/>
    <gridsvg:argument name="htmlWrapper" value="FALSE"/>
    <gridsvg:argument name="usePaths" value="none"/>
    <gridsvg:argument name="uniqueNames" value="TRUE"/>
    <gridsvg:separator name="id.sep" value="."/>
    <gridsvg:separator name="gPath.sep" value="::"/>
    <gridsvg:separator name="vpPath.sep" value="::"/>
  </metadata>
  <g transform="translate(0, 295.2) scale(1, -1)">
    <g id="Fig:densgridSVG" fill="none" stroke="rgb(0,0,0)" stroke-dasharray="none" stroke-width="0.75" font-size="12" font-family="Helvetica, Arial, FreeSans, Liberation Sans, Nimbus Sans L, sans-serif" opacity="1" stroke-linecap="round" stroke-linejoin="round" stroke-miterlimit="10" stroke-opacity="1" fill-opacity="0" font-weight="normal" font-style="normal">
      <g id="Fig:densplot_01.background.1">
        <rect id="Fig:densplot_01.background.1.1" x="0" y="0" width="288" height="295.2" transform="" fill="none" stroke="none" stroke-opacity="0" fill-opacity="0"/>
      </g>
      <g id="Fig:densplot_01.toplevel.vp.1" font-size="12">
        <g id="Fig:densplot_01.main.vp.1">
          <g id="Fig:densGRID.VP.25.1">
            <g id="Fig:dens.key.frame.1">
              <g id="Fig:densGRID.VP.26.1">
                <g id="Fig:densGRID.cellGrob.32.1">
                  <g id="Fig:dens.key.background.1">
                    <rect id="Fig:dens.key.background.1.1" x="102.31" y="254.71" width="83.39" height="34.49" transform="" fill="none" opacity="1" stroke="none" stroke-opacity="0" fill-opacity="0"/>
                  </g>
                </g>
              </g>
              <g id="Fig:densGRID.VP.27.1">
                <g id="Fig:densGRID.cellGrob.33.1">
                  <g id="Fig:dens.key.rect.1.1.1">
                    <rect id="Fig:dens.key.rect.1.1.1.1" x="108.98" y="277.7" width="33.36" height="11.5" transform="" opacity="1" fill="rgb(228,26,28)" stroke="rgb(0,0,0)" stroke-opacity="1" fill-opacity="1"/>
                  </g>
                </g>
              </g>
              <g id="Fig:densGRID.VP.28.1">
                <g id="Fig:densGRID.cellGrob.34.1">
                  <g id="Fig:dens.key.rect.1.2.1">
                    <rect id="Fig:dens.key.rect.1.2.1.1" x="108.98" y="266.21" width="33.36" height="11.5" transform="" opacity="1" fill="rgb(55,126,184)" stroke="rgb(0,0,0)" stroke-opacity="1" fill-opacity="1"/>
                  </g>
                </g>
              </g>
              <g id="Fig:densGRID.VP.29.1">
                <g id="Fig:densGRID.cellGrob.35.1">
                  <g id="Fig:dens.key.rect.1.3.1">
                    <rect id="Fig:dens.key.rect.1.3.1.1" x="108.98" y="254.71" width="33.36" height="11.5" transform="" opacity="1" fill="rgb(77,175,74)" stroke="rgb(0,0,0)" stroke-opacity="1" fill-opacity="1"/>
                  </g>
                </g>
              </g>
              <g id="Fig:densGRID.VP.30.1">
                <g id="Fig:densGRID.cellGrob.36.1">
                  <g id="Fig:dens.key.text.2.1.1">
                    <g id="Fig:dens.key.text.2.1.1.1" transform="translate(155.68, 283.45)" stroke-width="0.1">
                      <g id="Fig:dens.key.text.2.1.1.1.scale" transform="scale(1, -1)">
                        <text x="0" y="0" id="Fig:dens.key.text.2.1.1.1.text" text-anchor="start" stroke="rgb(0,0,0)" opacity="1" fill="rgb(0,0,0)" stroke-opacity="1" fill-opacity="1" font-size="12" font-weight="normal" font-style="normal">
                          <tspan id="Fig:dens.key.text.2.1.1.1.tspan.1" dy="4.31" x="0">Flag</tspan>
                        </text>
                      </g>
                    </g>
                  </g>
                </g>
              </g>
              <g id="Fig:densGRID.VP.31.1">
                <g id="Fig:densGRID.cellGrob.37.1">
                  <g id="Fig:dens.key.text.2.2.1">
                    <g id="Fig:dens.key.text.2.2.1.1" transform="translate(155.68, 271.96)" stroke-width="0.1">
                      <g id="Fig:dens.key.text.2.2.1.1.scale" transform="scale(1, -1)">
                        <text x="0" y="0" id="Fig:dens.key.text.2.2.1.1.text" text-anchor="start" stroke="rgb(0,0,0)" opacity="1" fill="rgb(0,0,0)" stroke-opacity="1" fill-opacity="1" font-size="12" font-weight="normal" font-style="normal">
                          <tspan id="Fig:dens.key.text.2.2.1.1.tspan.1" dy="4.31" x="0">N</tspan>
                        </text>
                      </g>
                    </g>
                  </g>
                </g>
              </g>
              <g id="Fig:densGRID.VP.32.1">
                <g id="Fig:densGRID.cellGrob.38.1">
                  <g id="Fig:dens.key.text.2.3.1">
                    <g id="Fig:dens.key.text.2.3.1.1" transform="translate(155.68, 260.46)" stroke-width="0.1">
                      <g id="Fig:dens.key.text.2.3.1.1.scale" transform="scale(1, -1)">
                        <text x="0" y="0" id="Fig:dens.key.text.2.3.1.1.text" text-anchor="start" stroke="rgb(0,0,0)" opacity="1" fill="rgb(0,0,0)" stroke-opacity="1" fill-opacity="1" font-size="12" font-weight="normal" font-style="normal">
                          <tspan id="Fig:dens.key.text.2.3.1.1.tspan.1" dy="4.31" x="0">NLS</tspan>
                        </text>
                      </g>
                    </g>
                  </g>
                </g>
              </g>
            </g>
          </g>
        </g>
        <g id="Fig:densplot_01.ylab.vp.1">
          <g id="Fig:densplot_01.ylab.1">
            <g id="Fig:densplot_01.ylab.1.1" transform="translate(16.31, 145.45)" stroke-width="0.1">
              <g id="Fig:densplot_01.ylab.1.1.scale" transform="scale(1, -1)">
                <text x="0" y="0" id="Fig:densplot_01.ylab.1.1.text" transform="rotate(-90)" text-anchor="middle" opacity="1" stroke="rgb(0,0,0)" fill="rgb(0,0,0)" stroke-opacity="1" fill-opacity="1" font-size="12" font-weight="normal" font-style="normal">
                  <tspan id="Fig:densplot_01.ylab.1.1.tspan.1" dy="4.31" x="0">Density</tspan>
                </text>
              </g>
            </g>
          </g>
        </g>
        <g id="Fig:densplot_01.figure.vp.1"/>
        <defs>
          <clipPath id="Fig:densplot_01.panel.1.1.vp.1.clipPath">
            <rect x="50.8" y="48.19" width="225.2" height="194.52" fill="none" stroke="none"/>
          </clipPath>
        </defs>
        <g id="Fig:densplot_01.panel.1.1.vp.1" clip-path="url(#Fig:densplot_01.panel.1.1.vp.1.clipPath)"/>
        <g id="Fig:densplot_01.strip.1.1.off.vp.1"/>
        <g id="Fig:densplot_01.strip.left.1.1.off.vp.1">
          <g id="Fig:densplot_01.ticks.left.panel.1.1.1">
            <polyline id="Fig:densplot_01.ticks.left.panel.1.1.1.1" points="50.8,60.13 45.13,60.13" stroke="rgb(0,0,0)" opacity="1" stroke-dasharray="none" stroke-width="0.75" stroke-opacity="1" fill="none"/>
            <polyline id="Fig:densplot_01.ticks.left.panel.1.1.1.2" points="50.8,121.5 45.13,121.5" stroke="rgb(0,0,0)" opacity="1" stroke-dasharray="none" stroke-width="0.75" stroke-opacity="1" fill="none"/>
            <polyline id="Fig:densplot_01.ticks.left.panel.1.1.1.3" points="50.8,182.86 45.13,182.86" stroke="rgb(0,0,0)" opacity="1" stroke-dasharray="none" stroke-width="0.75" stroke-opacity="1" fill="none"/>
          </g>
          <g id="Fig:densplot_01.ticklabels.left.panel.1.1.1">
            <g id="Fig:densplot_01.ticklabels.left.panel.1.1.1.1" transform="translate(39.47, 60.13)" stroke-width="0.1">
              <g id="Fig:densplot_01.ticklabels.left.panel.1.1.1.1.scale" transform="scale(1, -1)">
                <text x="0" y="0" id="Fig:densplot_01.ticklabels.left.panel.1.1.1.1.text" transform="rotate(-90)" text-anchor="middle" stroke="rgb(0,0,0)" opacity="1" fill="rgb(0,0,0)" stroke-opacity="1" fill-opacity="1" font-size="9.6" font-weight="normal" font-style="normal">
                  <tspan id="Fig:densplot_01.ticklabels.left.panel.1.1.1.1.tspan.1" dy="0" x="0">0.0</tspan>
                </text>
              </g>
            </g>
            <g id="Fig:densplot_01.ticklabels.left.panel.1.1.1.2" transform="translate(39.47, 121.5)" stroke-width="0.1">
              <g id="Fig:densplot_01.ticklabels.left.panel.1.1.1.2.scale" transform="scale(1, -1)">
                <text x="0" y="0" id="Fig:densplot_01.ticklabels.left.panel.1.1.1.2.text" transform="rotate(-90)" text-anchor="middle" stroke="rgb(0,0,0)" opacity="1" fill="rgb(0,0,0)" stroke-opacity="1" fill-opacity="1" font-size="9.6" font-weight="normal" font-style="normal">
                  <tspan id="Fig:densplot_01.ticklabels.left.panel.1.1.1.2.tspan.1" dy="0" x="0">0.5</tspan>
                </text>
              </g>
            </g>
            <g id="Fig:densplot_01.ticklabels.left.panel.1.1.1.3" transform="translate(39.47, 182.86)" stroke-width="0.1">
              <g id="Fig:densplot_01.ticklabels.left.panel.1.1.1.3.scale" transform="scale(1, -1)">
                <text x="0" y="0" id="Fig:densplot_01.ticklabels.left.panel.1.1.1.3.text" transform="rotate(-90)" text-anchor="middle" stroke="rgb(0,0,0)" opacity="1" fill="rgb(0,0,0)" stroke-opacity="1" fill-opacity="1" font-size="9.6" font-weight="normal" font-style="normal">
                  <tspan id="Fig:densplot_01.ticklabels.left.panel.1.1.1.3.tspan.1" dy="0" x="0">1.0</tspan>
                </text>
              </g>
            </g>
          </g>
        </g>
        <g id="Fig:densplot_01.panel.1.1.off.vp.1">
          <g id="Fig:densplot_01.ticks.bottom.panel.1.1.1">
            <polyline id="Fig:densplot_01.ticks.bottom.panel.1.1.1.1" points="89.08,48.19 89.08,42.52" stroke="rgb(0,0,0)" opacity="1" stroke-dasharray="none" stroke-width="0.75" stroke-opacity="1" fill="none"/>
            <polyline id="Fig:densplot_01.ticks.bottom.panel.1.1.1.2" points="152,48.19 152,42.52" stroke="rgb(0,0,0)" opacity="1" stroke-dasharray="none" stroke-width="0.75" stroke-opacity="1" fill="none"/>
            <polyline id="Fig:densplot_01.ticks.bottom.panel.1.1.1.3" points="214.91,48.19 214.91,42.52" stroke="rgb(0,0,0)" opacity="1" stroke-dasharray="none" stroke-width="0.75" stroke-opacity="1" fill="none"/>
          </g>
          <g id="Fig:densplot_01.ticklabels.bottom.panel.1.1.1">
            <g id="Fig:densplot_01.ticklabels.bottom.panel.1.1.1.1" transform="translate(89.08, 36.85)" stroke-width="0.1">
              <g id="Fig:densplot_01.ticklabels.bottom.panel.1.1.1.1.scale" transform="scale(1, -1)">
                <text x="0" y="0" id="Fig:densplot_01.ticklabels.bottom.panel.1.1.1.1.text" text-anchor="middle" stroke="rgb(0,0,0)" opacity="1" fill="rgb(0,0,0)" stroke-opacity="1" fill-opacity="1" font-size="9.6" font-weight="normal" font-style="normal">
                  <tspan id="Fig:densplot_01.ticklabels.bottom.panel.1.1.1.1.tspan.1" dy="7.18" x="0">2</tspan>
                </text>
              </g>
            </g>
            <g id="Fig:densplot_01.ticklabels.bottom.panel.1.1.1.2" transform="translate(152, 36.85)" stroke-width="0.1">
              <g id="Fig:densplot_01.ticklabels.bottom.panel.1.1.1.2.scale" transform="scale(1, -1)">
                <text x="0" y="0" id="Fig:densplot_01.ticklabels.bottom.panel.1.1.1.2.text" text-anchor="middle" stroke="rgb(0,0,0)" opacity="1" fill="rgb(0,0,0)" stroke-opacity="1" fill-opacity="1" font-size="9.6" font-weight="normal" font-style="normal">
                  <tspan id="Fig:densplot_01.ticklabels.bottom.panel.1.1.1.2.tspan.1" dy="7.18" x="0">4</tspan>
                </text>
              </g>
            </g>
            <g id="Fig:densplot_01.ticklabels.bottom.panel.1.1.1.3" transform="translate(214.91, 36.85)" stroke-width="0.1">
              <g id="Fig:densplot_01.ticklabels.bottom.panel.1.1.1.3.scale" transform="scale(1, -1)">
                <text x="0" y="0" id="Fig:densplot_01.ticklabels.bottom.panel.1.1.1.3.text" text-anchor="middle" stroke="rgb(0,0,0)" opacity="1" fill="rgb(0,0,0)" stroke-opacity="1" fill-opacity="1" font-size="9.6" font-weight="normal" font-style="normal">
                  <tspan id="Fig:densplot_01.ticklabels.bottom.panel.1.1.1.3.tspan.1" dy="7.18" x="0">6</tspan>
                </text>
              </g>
            </g>
          </g>
        </g>
        <defs>
          <clipPath id="Fig:densplot_01.panel.1.1.vp.2.clipPath">
            <rect x="50.8" y="48.19" width="225.2" height="194.52" fill="none" stroke="none"/>
          </clipPath>
        </defs>
        <g id="Fig:densplot_01.panel.1.1.vp.2" clip-path="url(#Fig:densplot_01.panel.1.1.vp.2.clipPath)">
          <g id="Fig:densplot_01.xyplot.lines.group.1.panel.1.1.1">
            <polyline id="Fig:densplot_01.xyplot.lines.group.1.panel.1.1.1.1" points="65.04,61.86 65.42,62.45 65.81,63.2 66.19,64.19 66.58,65.44 66.96,67 67.35,68.92 67.73,71.25 68.12,74.03 68.5,77.34 68.89,81.23 69.27,85.83 69.66,91.08 70.04,97 70.43,103.58 70.81,110.81 71.2,118.64 71.58,127 71.97,135.86 72.35,145.01 72.74,154.28 73.12,163.49 73.51,172.47 73.89,181.02 74.28,188.95 74.66,195.99 75.05,201.86 75.43,206.5 75.82,209.8 76.2,211.67 76.59,212.05 76.97,210.94 77.36,208.35 77.74,204.13 78.13,198.65 78.51,192.07 78.9,184.57 79.28,176.32 79.67,167.53 80.05,158.39 80.44,149.1 80.82,139.89 81.21,130.93 81.59,122.34 81.98,114.23 82.36,106.69 82.75,99.77 83.13,93.52 83.52,88.05 83.9,83.24 84.29,79.06 84.67,75.47 85.06,72.43 85.44,69.87 85.83,67.76 86.21,66.08 86.6,64.73 86.98,63.66 87.37,62.82 87.75,62.16 88.14,61.67 88.52,61.31 88.91,61.06 89.29,60.91 89.68,60.85 90.06,60.86 90.45,60.95 90.83,61.11 91.22,61.36 91.6,61.7 91.99,62.16 92.37,62.77 92.76,63.54 93.14,64.49 93.53,65.65 93.91,67.04 94.3,68.69 94.68,70.65 95.07,72.97 95.45,75.62 95.84,78.62 96.22,81.97 96.61,85.65 96.99,89.66 97.38,93.96 97.76,98.53 98.15,103.26 98.53,108.09 98.92,112.91 99.3,117.65 99.69,122.19 100.07,126.46 100.46,130.3 100.84,133.59 101.23,136.29 101.61,138.34 102,139.71 102.38,140.37 102.77,140.32 103.15,139.58 103.54,138.1 103.92,136.06 104.31,133.55 104.69,130.69 105.08,127.58 105.46,124.32 105.85,121.04 106.23,117.84 106.62,114.87 107,112.18 107.39,109.84 107.77,107.88 108.16,106.33 108.54,105.19 108.93,104.44 109.31,104.12 109.7,104.1 110.08,104.31 110.47,104.7 110.85,105.2 111.24,105.74 111.63,106.27 112.01,106.72 112.4,107.04 112.78,107.2 113.17,107.19 113.55,107.01 113.94,106.67 114.32,106.17 114.71,105.54 115.09,104.81 115.48,104.01 115.86,103.2 116.25,102.38 116.63,101.6 117.02,100.86 117.4,100.18 117.79,99.59 118.17,99.06 118.56,98.6 118.94,98.2 119.33,97.84 119.71,97.5 120.1,97.19 120.48,96.87 120.87,96.54 121.25,96.2 121.64,95.83 122.02,95.44 122.41,95.03 122.79,94.6 123.18,94.15 123.56,93.69 123.95,93.23 124.33,92.77 124.72,92.31 125.1,91.86 125.49,91.42 125.87,90.98 126.26,90.55 126.64,90.13 127.03,89.71 127.41,89.29 127.8,88.88 128.18,88.47 128.57,88.05 128.95,87.64 129.34,87.23 129.72,86.83 130.11,86.42 130.49,86.03 130.88,85.63 131.26,85.25 131.65,84.87 132.03,84.5 132.42,84.14 132.8,83.79 133.19,83.44 133.57,83.1 133.96,82.76 134.34,82.43 134.73,82.1 135.11,81.78 135.5,81.46 135.88,81.14 136.27,80.82 136.65,80.51 137.04,80.19 137.42,79.88 137.81,79.57 138.19,79.26 138.58,78.96 138.96,78.66 139.35,78.36 139.73,78.06 140.12,77.77 140.5,77.48 140.89,77.2 141.27,76.92 141.66,76.66 142.04,76.4 142.43,76.14 142.81,75.9 143.2,75.66 143.58,75.43 143.97,75.21 144.35,75 144.74,74.8 145.12,74.61 145.51,74.42 145.89,74.24 146.28,74.07 146.66,73.9 147.05,73.74 147.43,73.58 147.82,73.43 148.2,73.28 148.59,73.14 148.97,72.99 149.36,72.85 149.74,72.71 150.13,72.57 150.51,72.42 150.9,72.28 151.28,72.13 151.67,71.99 152.05,71.84 152.44,71.69 152.82,71.54 153.21,71.39 153.59,71.23 153.98,71.08 154.36,70.93 154.75,70.78 155.13,70.63 155.52,70.48 155.9,70.34 156.29,70.2 156.67,70.06 157.06,69.93 157.44,69.8 157.83,69.68 158.21,69.57 158.6,69.46 158.98,69.36 159.37,69.27 159.75,69.18 160.14,69.1 160.52,69.02 160.91,68.94 161.29,68.88 161.68,68.81 162.06,68.75 162.45,68.69 162.83,68.63 163.22,68.57 163.6,68.52 163.99,68.46 164.38,68.41 164.76,68.35 165.15,68.3 165.53,68.25 165.92,68.19 166.3,68.14 166.69,68.08 167.07,68.03 167.46,67.98 167.84,67.92 168.23,67.86 168.61,67.81 169,67.75 169.38,67.69 169.77,67.62 170.15,67.56 170.54,67.49 170.92,67.42 171.31,67.35 171.69,67.28 172.08,67.2 172.46,67.12 172.85,67.04 173.23,66.95 173.62,66.86 174,66.77 174.39,66.68 174.77,66.59 175.16,66.49 175.54,66.4 175.93,66.31 176.31,66.21 176.7,66.12 177.08,66.03 177.47,65.93 177.85,65.85 178.24,65.76 178.62,65.68 179.01,65.6 179.39,65.52 179.78,65.45 180.16,65.38 180.55,65.31 180.93,65.25 181.32,65.2 181.7,65.14 182.09,65.1 182.47,65.05 182.86,65.01 183.24,64.97 183.63,64.93 184.01,64.9 184.4,64.86 184.78,64.83 185.17,64.8 185.55,64.76 185.94,64.73 186.32,64.7 186.71,64.66 187.09,64.63 187.48,64.59 187.86,64.56 188.25,64.52 188.63,64.48 189.02,64.44 189.4,64.41 189.79,64.37 190.17,64.33 190.56,64.29 190.94,64.24 191.33,64.2 191.71,64.16 192.1,64.12 192.48,64.07 192.87,64.03 193.25,63.98 193.64,63.93 194.02,63.89 194.41,63.84 194.79,63.8 195.18,63.75 195.56,63.71 195.95,63.67 196.33,63.64 196.72,63.6 197.1,63.57 197.49,63.54 197.87,63.51 198.26,63.48 198.64,63.46 199.03,63.44 199.41,63.42 199.8,63.41 200.18,63.39 200.57,63.38 200.95,63.37 201.34,63.36 201.72,63.34 202.11,63.33 202.49,63.32 202.88,63.31 203.26,63.3 203.65,63.28 204.03,63.27 204.42,63.26 204.8,63.24 205.19,63.22 205.57,63.2 205.96,63.19 206.34,63.17 206.73,63.14 207.11,63.12 207.5,63.1 207.88,63.08 208.27,63.06 208.65,63.04 209.04,63.02 209.42,63 209.81,62.98 210.19,62.96 210.58,62.94 210.96,62.92 211.35,62.9 211.73,62.88 212.12,62.86 212.5,62.84 212.89,62.82 213.27,62.8 213.66,62.78 214.04,62.76 214.43,62.74 214.81,62.72 215.2,62.7 215.58,62.67 215.97,62.65 216.36,62.62 216.74,62.6 217.13,62.58 217.51,62.55 217.9,62.53 218.28,62.51 218.67,62.49 219.05,62.47 219.44,62.45 219.82,62.44 220.21,62.42 220.59,62.41 220.98,62.4 221.36,62.39 221.75,62.38 222.13,62.37 222.52,62.36 222.9,62.36 223.29,62.35 223.67,62.35 224.06,62.35 224.44,62.34 224.83,62.34 225.21,62.34 225.6,62.33 225.98,62.33 226.37,62.33 226.75,62.32 227.14,62.32 227.52,62.31 227.91,62.31 228.29,62.3 228.68,62.29 229.06,62.28 229.45,62.28 229.83,62.27 230.22,62.26 230.6,62.25 230.99,62.24 231.37,62.23 231.76,62.22 232.14,62.21 232.53,62.2 232.91,62.19 233.3,62.18 233.68,62.17 234.07,62.16 234.45,62.15 234.84,62.14 235.22,62.13 235.61,62.12 235.99,62.11 236.38,62.1 236.76,62.09 237.15,62.08 237.53,62.08 237.92,62.07 238.3,62.06 238.69,62.05 239.07,62.04 239.46,62.04 239.84,62.03 240.23,62.02 240.61,62 241,61.99 241.38,61.97 241.77,61.96 242.15,61.93 242.54,61.91 242.92,61.88 243.31,61.85 243.69,61.82 244.08,61.79 244.46,61.75 244.85,61.7 245.23,61.66 245.62,61.61 246,61.56 246.39,61.51 246.77,61.45 247.16,61.39 247.54,61.33 247.93,61.27 248.31,61.21 248.7,61.15 249.08,61.08 249.47,61.02 249.85,60.95 250.24,60.89 250.62,60.83 251.01,60.76 251.39,60.7 251.78,60.65 252.16,60.59 252.55,60.54 252.93,60.49 253.32,60.45 253.7,60.41 254.09,60.37 254.47,60.33 254.86,60.3 255.24,60.28 255.63,60.25 256.01,60.23 256.4,60.21 256.78,60.2 257.17,60.19 257.55,60.17 257.94,60.17 258.32,60.16 258.71,60.15 259.09,60.15 259.48,60.14 259.86,60.14 260.25,60.14 260.63,60.14 261.02,60.13 261.4,60.13 261.79,60.13" stroke-dasharray="none" stroke="rgb(228,26,28)" stroke-width="0.75" opacity="1" stroke-opacity="1" fill="none"/>
          </g>
          <g id="Fig:densplot_01.xyplot.lines.group.2.panel.1.1.1">
            <polyline id="Fig:densplot_01.xyplot.lines.group.2.panel.1.1.1.1" points="65.09,62.03 65.48,62.67 65.86,63.51 66.25,64.61 66.63,65.99 67.01,67.71 67.4,69.82 67.78,72.38 68.17,75.44 68.55,79.08 68.94,83.46 69.32,88.52 69.71,94.3 70.09,100.81 70.48,108.06 70.86,116.01 71.25,124.62 71.63,133.88 72.02,143.61 72.4,153.63 72.79,163.77 73.17,173.85 73.55,183.66 73.94,193 74.32,201.6 74.71,209.1 75.09,215.4 75.48,220.35 75.86,223.82 76.25,225.71 76.63,225.96 77.02,224.57 77.4,221.36 77.79,216.57 78.17,210.42 78.56,203.09 78.94,194.76 79.33,185.64 79.71,175.94 80.09,165.87 80.48,155.7 80.86,145.65 81.25,135.89 81.63,126.55 82.02,117.76 82.4,109.6 82.79,102.13 83.17,95.5 83.56,89.63 83.94,84.48 84.33,80.01 84.71,76.19 85.1,72.96 85.48,70.25 85.87,68.05 86.25,66.29 86.64,64.88 87.02,63.74 87.4,62.85 87.79,62.15 88.17,61.62 88.56,61.22 88.94,60.93 89.33,60.72 89.71,60.58 90.1,60.48 90.48,60.42 90.87,60.41 91.25,60.42 91.64,60.48 92.02,60.58 92.41,60.72 92.79,60.92 93.18,61.18 93.56,61.53 93.94,61.97 94.33,62.53 94.71,63.26 95.1,64.16 95.48,65.27 95.87,66.6 96.25,68.19 96.64,70.06 97.02,72.24 97.41,74.77 97.79,77.68 98.18,80.94 98.56,84.54 98.95,88.46 99.33,92.67 99.72,97.13 100.1,101.79 100.49,106.57 100.87,111.37 101.25,116.08 101.64,120.62 102.02,124.87 102.41,128.74 102.79,132.14 103.18,134.93 103.56,137 103.95,138.37 104.33,139.01 104.72,138.92 105.1,138.12 105.49,136.65 105.87,134.56 106.26,131.86 106.64,128.76 107.03,125.37 107.41,121.81 107.79,118.19 108.18,114.63 108.56,111.22 108.95,108.1 109.33,105.36 109.72,103.03 110.1,101.15 110.49,99.73 110.87,98.76 111.26,98.24 111.64,98.12 112.03,98.39 112.41,98.94 112.8,99.67 113.18,100.52 113.57,101.43 113.95,102.31 114.33,103.12 114.72,103.77 115.1,104.23 115.49,104.48 115.87,104.5 116.26,104.31 116.64,103.92 117.03,103.34 117.41,102.61 117.8,101.76 118.18,100.84 118.57,99.9 118.95,98.97 119.34,98.09 119.72,97.27 120.11,96.54 120.49,95.92 120.88,95.4 121.26,94.96 121.64,94.6 122.03,94.3 122.41,94.04 122.8,93.79 123.18,93.55 123.57,93.29 123.95,93 124.34,92.66 124.72,92.29 125.11,91.87 125.49,91.41 125.88,90.92 126.26,90.41 126.65,89.88 127.03,89.36 127.42,88.84 127.8,88.33 128.18,87.85 128.57,87.39 128.95,86.95 129.34,86.55 129.72,86.17 130.11,85.81 130.49,85.46 130.88,85.13 131.26,84.81 131.65,84.5 132.03,84.2 132.42,83.9 132.8,83.6 133.19,83.3 133.57,83.01 133.96,82.71 134.34,82.42 134.73,82.12 135.11,81.83 135.49,81.53 135.88,81.23 136.26,80.93 136.65,80.63 137.03,80.32 137.42,80.01 137.8,79.71 138.19,79.4 138.57,79.09 138.96,78.79 139.34,78.49 139.73,78.2 140.11,77.91 140.5,77.63 140.88,77.36 141.27,77.1 141.65,76.86 142.03,76.62 142.42,76.39 142.8,76.17 143.19,75.97 143.57,75.77 143.96,75.58 144.34,75.41 144.73,75.24 145.11,75.07 145.5,74.92 145.88,74.77 146.27,74.62 146.65,74.48 147.04,74.33 147.42,74.19 147.81,74.05 148.19,73.91 148.57,73.77 148.96,73.63 149.34,73.49 149.73,73.34 150.11,73.2 150.5,73.05 150.88,72.9 151.27,72.75 151.65,72.6 152.04,72.44 152.42,72.29 152.81,72.14 153.19,71.99 153.58,71.84 153.96,71.69 154.35,71.54 154.73,71.4 155.12,71.26 155.5,71.12 155.88,70.98 156.27,70.85 156.65,70.72 157.04,70.59 157.42,70.47 157.81,70.35 158.19,70.24 158.58,70.13 158.96,70.02 159.35,69.92 159.73,69.82 160.12,69.72 160.5,69.62 160.89,69.53 161.27,69.43 161.66,69.34 162.04,69.24 162.42,69.14 162.81,69.04 163.19,68.94 163.58,68.84 163.96,68.73 164.35,68.63 164.73,68.52 165.12,68.41 165.5,68.31 165.89,68.2 166.27,68.1 166.66,67.99 167.04,67.9 167.43,67.8 167.81,67.71 168.2,67.62 168.58,67.54 168.97,67.46 169.35,67.38 169.73,67.31 170.12,67.25 170.5,67.18 170.89,67.12 171.27,67.06 171.66,66.99 172.04,66.93 172.43,66.87 172.81,66.81 173.2,66.75 173.58,66.68 173.97,66.62 174.35,66.55 174.74,66.48 175.12,66.42 175.51,66.35 175.89,66.28 176.27,66.21 176.66,66.14 177.04,66.07 177.43,66 177.81,65.94 178.2,65.87 178.58,65.81 178.97,65.75 179.35,65.69 179.74,65.63 180.12,65.57 180.51,65.51 180.89,65.46 181.28,65.4 181.66,65.35 182.05,65.3 182.43,65.24 182.81,65.19 183.2,65.14 183.58,65.1 183.97,65.05 184.35,65.01 184.74,64.96 185.12,64.92 185.51,64.88 185.89,64.84 186.28,64.81 186.66,64.77 187.05,64.73 187.43,64.7 187.82,64.66 188.2,64.62 188.59,64.58 188.97,64.55 189.36,64.51 189.74,64.46 190.12,64.42 190.51,64.38 190.89,64.33 191.28,64.28 191.66,64.24 192.05,64.19 192.43,64.14 192.82,64.09 193.2,64.04 193.59,63.99 193.97,63.94 194.36,63.89 194.74,63.85 195.13,63.81 195.51,63.76 195.9,63.73 196.28,63.69 196.66,63.66 197.05,63.62 197.43,63.59 197.82,63.56 198.2,63.54 198.59,63.51 198.97,63.49 199.36,63.47 199.74,63.45 200.13,63.43 200.51,63.41 200.9,63.39 201.28,63.38 201.67,63.36 202.05,63.35 202.44,63.34 202.82,63.33 203.21,63.32 203.59,63.31 203.97,63.3 204.36,63.29 204.74,63.28 205.13,63.27 205.51,63.27 205.9,63.26 206.28,63.25 206.67,63.24 207.05,63.23 207.44,63.22 207.82,63.21 208.21,63.2 208.59,63.19 208.98,63.17 209.36,63.16 209.75,63.14 210.13,63.12 210.51,63.11 210.9,63.09 211.28,63.07 211.67,63.04 212.05,63.02 212.44,63 212.82,62.97 213.21,62.95 213.59,62.93 213.98,62.9 214.36,62.88 214.75,62.85 215.13,62.82 215.52,62.8 215.9,62.77 216.29,62.75 216.67,62.73 217.06,62.7 217.44,62.68 217.82,62.66 218.21,62.63 218.59,62.61 218.98,62.59 219.36,62.57 219.75,62.55 220.13,62.54 220.52,62.52 220.9,62.5 221.29,62.49 221.67,62.48 222.06,62.47 222.44,62.46 222.83,62.45 223.21,62.44 223.6,62.43 223.98,62.43 224.36,62.42 224.75,62.42 225.13,62.41 225.52,62.41 225.9,62.4 226.29,62.39 226.67,62.39 227.06,62.38 227.44,62.37 227.83,62.36 228.21,62.34 228.6,62.33 228.98,62.32 229.37,62.3 229.75,62.29 230.14,62.27 230.52,62.26 230.9,62.24 231.29,62.23 231.67,62.21 232.06,62.2 232.44,62.18 232.83,62.17 233.21,62.16 233.6,62.15 233.98,62.13 234.37,62.12 234.75,62.11 235.14,62.1 235.52,62.08 235.91,62.07 236.29,62.06 236.68,62.04 237.06,62.03 237.45,62.01 237.83,62 238.21,61.98 238.6,61.96 238.98,61.94 239.37,61.93 239.75,61.91 240.14,61.89 240.52,61.87 240.91,61.85 241.29,61.83 241.68,61.82 242.06,61.8 242.45,61.78 242.83,61.76 243.22,61.74 243.6,61.72 243.99,61.69 244.37,61.67 244.75,61.65 245.14,61.62 245.52,61.59 245.91,61.56 246.29,61.52 246.68,61.49 247.06,61.45 247.45,61.4 247.83,61.36 248.22,61.31 248.6,61.25 248.99,61.2 249.37,61.14 249.76,61.08 250.14,61.02 250.53,60.95 250.91,60.89 251.3,60.83 251.68,60.77 252.06,60.71 252.45,60.65 252.83,60.59 253.22,60.54 253.6,60.49 253.99,60.44 254.37,60.4 254.76,60.36 255.14,60.33 255.53,60.3 255.91,60.27 256.3,60.25 256.68,60.22 257.07,60.21 257.45,60.19 257.84,60.18 258.22,60.17 258.6,60.16 258.99,60.15 259.37,60.15 259.76,60.14 260.14,60.14 260.53,60.14 260.91,60.14 261.3,60.13 261.68,60.13" stroke-dasharray="none" stroke="rgb(228,26,28)" stroke-width="0.75" opacity="1" stroke-opacity="1" fill="none"/>
          </g>
          <g id="Fig:densplot_01.xyplot.lines.group.3.panel.1.1.1">
            <polyline id="Fig:densplot_01.xyplot.lines.group.3.panel.1.1.1.1" points="65.15,61.75 65.54,62.31 65.92,63.05 66.3,64 66.69,65.19 67.07,66.66 67.46,68.48 67.84,70.67 68.23,73.32 68.61,76.54 69,80.31 69.38,84.68 69.76,89.66 70.15,95.26 70.53,101.5 70.92,108.35 71.3,115.83 71.69,123.81 72.07,132.16 72.46,140.76 72.84,149.45 73.22,158.08 73.61,166.47 73.99,174.42 74.38,181.61 74.76,187.93 75.15,193.21 75.53,197.32 75.92,200.15 76.3,201.62 76.68,201.67 77.07,200.14 77.45,197.16 77.84,192.9 78.22,187.5 78.61,181.09 78.99,173.84 79.38,165.93 79.76,157.54 80.14,148.87 80.53,140.17 80.91,131.59 81.3,123.28 81.68,115.36 82.07,107.91 82.45,101.02 82.84,94.8 83.22,89.27 83.6,84.36 83.99,80.06 84.37,76.35 84.76,73.19 85.14,70.52 85.53,68.32 85.91,66.57 86.3,65.15 86.68,64.01 87.06,63.13 87.45,62.46 87.83,61.97 88.22,61.64 88.6,61.45 88.99,61.41 89.37,61.47 89.76,61.66 90.14,61.97 90.52,62.42 90.91,63.03 91.29,63.8 91.68,64.81 92.06,66.04 92.45,67.53 92.83,69.31 93.22,71.39 93.6,73.8 93.98,76.55 94.37,79.69 94.75,83.22 95.14,87.09 95.52,91.27 95.91,95.72 96.29,100.39 96.68,105.22 97.06,110.13 97.44,115 97.83,119.73 98.21,124.22 98.6,128.36 98.98,132.06 99.37,135.24 99.75,137.82 100.14,139.67 100.52,140.76 100.9,141.15 101.29,140.84 101.67,139.9 102.06,138.36 102.44,136.31 102.83,133.84 103.21,131.04 103.6,128.08 103.98,125.08 104.36,122.14 104.75,119.36 105.13,116.82 105.52,114.57 105.9,112.72 106.29,111.28 106.67,110.21 107.06,109.49 107.44,109.1 107.82,108.98 108.21,109.08 108.59,109.34 108.98,109.68 109.36,110.04 109.75,110.34 110.13,110.56 110.51,110.66 110.9,110.62 111.28,110.42 111.67,110.05 112.05,109.53 112.44,108.9 112.82,108.18 113.21,107.4 113.59,106.59 113.97,105.77 114.36,104.97 114.74,104.22 115.13,103.52 115.51,102.88 115.9,102.3 116.28,101.77 116.67,101.29 117.05,100.85 117.43,100.44 117.82,100.05 118.2,99.65 118.59,99.26 118.97,98.85 119.36,98.44 119.74,98.01 120.13,97.58 120.51,97.13 120.89,96.68 121.28,96.23 121.66,95.79 122.05,95.34 122.43,94.91 122.82,94.48 123.2,94.06 123.59,93.65 123.97,93.24 124.35,92.84 124.74,92.43 125.12,92.03 125.51,91.63 125.89,91.22 126.28,90.81 126.66,90.4 127.05,89.99 127.43,89.57 127.81,89.16 128.2,88.74 128.58,88.32 128.97,87.9 129.35,87.48 129.74,87.06 130.12,86.64 130.51,86.23 130.89,85.82 131.27,85.41 131.66,85.01 132.04,84.61 132.43,84.22 132.81,83.83 133.2,83.46 133.58,83.09 133.97,82.73 134.35,82.38 134.73,82.04 135.12,81.71 135.5,81.39 135.89,81.08 136.27,80.77 136.66,80.48 137.04,80.2 137.43,79.92 137.81,79.65 138.19,79.39 138.58,79.13 138.96,78.88 139.35,78.64 139.73,78.4 140.12,78.16 140.5,77.93 140.89,77.7 141.27,77.47 141.65,77.24 142.04,77.02 142.42,76.79 142.81,76.56 143.19,76.34 143.58,76.11 143.96,75.88 144.35,75.65 144.73,75.42 145.11,75.19 145.5,74.96 145.88,74.73 146.27,74.5 146.65,74.27 147.04,74.04 147.42,73.81 147.81,73.59 148.19,73.36 148.57,73.14 148.96,72.93 149.34,72.72 149.73,72.51 150.11,72.31 150.5,72.11 150.88,71.92 151.27,71.73 151.65,71.55 152.03,71.37 152.42,71.2 152.8,71.04 153.19,70.88 153.57,70.73 153.96,70.58 154.34,70.43 154.72,70.3 155.11,70.17 155.49,70.04 155.88,69.92 156.26,69.8 156.65,69.69 157.03,69.58 157.42,69.48 157.8,69.38 158.18,69.29 158.57,69.2 158.95,69.11 159.34,69.03 159.72,68.95 160.11,68.88 160.49,68.81 160.88,68.74 161.26,68.68 161.64,68.61 162.03,68.55 162.41,68.5 162.8,68.44 163.18,68.39 163.57,68.33 163.95,68.28 164.34,68.23 164.72,68.18 165.1,68.13 165.49,68.08 165.87,68.03 166.26,67.97 166.64,67.92 167.03,67.86 167.41,67.8 167.8,67.74 168.18,67.67 168.56,67.6 168.95,67.53 169.33,67.45 169.72,67.37 170.1,67.29 170.49,67.2 170.87,67.11 171.26,67.02 171.64,66.93 172.02,66.83 172.41,66.74 172.79,66.64 173.18,66.55 173.56,66.46 173.95,66.37 174.33,66.29 174.72,66.21 175.1,66.13 175.48,66.05 175.87,65.98 176.25,65.91 176.64,65.84 177.02,65.78 177.41,65.72 177.79,65.67 178.18,65.61 178.56,65.56 178.94,65.51 179.33,65.47 179.71,65.42 180.1,65.38 180.48,65.33 180.87,65.29 181.25,65.25 181.64,65.2 182.02,65.16 182.4,65.11 182.79,65.07 183.17,65.02 183.56,64.97 183.94,64.93 184.33,64.88 184.71,64.83 185.1,64.78 185.48,64.73 185.86,64.68 186.25,64.63 186.63,64.59 187.02,64.54 187.4,64.5 187.79,64.45 188.17,64.41 188.56,64.37 188.94,64.34 189.32,64.3 189.71,64.27 190.09,64.24 190.48,64.21 190.86,64.18 191.25,64.16 191.63,64.13 192.02,64.11 192.4,64.09 192.78,64.06 193.17,64.04 193.55,64.02 193.94,63.99 194.32,63.97 194.71,63.94 195.09,63.91 195.48,63.88 195.86,63.84 196.24,63.81 196.63,63.77 197.01,63.73 197.4,63.69 197.78,63.65 198.17,63.61 198.55,63.57 198.93,63.53 199.32,63.49 199.7,63.45 200.09,63.42 200.47,63.38 200.86,63.35 201.24,63.32 201.63,63.3 202.01,63.28 202.39,63.26 202.78,63.25 203.16,63.24 203.55,63.23 203.93,63.22 204.32,63.22 204.7,63.21 205.09,63.21 205.47,63.21 205.85,63.2 206.24,63.2 206.62,63.19 207.01,63.19 207.39,63.18 207.78,63.17 208.16,63.15 208.55,63.14 208.93,63.12 209.31,63.1 209.7,63.08 210.08,63.05 210.47,63.02 210.85,63 211.24,62.97 211.62,62.94 212.01,62.91 212.39,62.88 212.77,62.86 213.16,62.83 213.54,62.8 213.93,62.78 214.31,62.75 214.7,62.73 215.08,62.71 215.47,62.69 215.85,62.67 216.23,62.65 216.62,62.63 217,62.61 217.39,62.6 217.77,62.58 218.16,62.56 218.54,62.55 218.93,62.54 219.31,62.52 219.69,62.51 220.08,62.49 220.46,62.48 220.85,62.47 221.23,62.45 221.62,62.44 222,62.43 222.39,62.42 222.77,62.41 223.15,62.4 223.54,62.39 223.92,62.38 224.31,62.37 224.69,62.36 225.08,62.35 225.46,62.34 225.85,62.33 226.23,62.33 226.61,62.32 227,62.31 227.38,62.3 227.77,62.29 228.15,62.28 228.54,62.26 228.92,62.25 229.31,62.24 229.69,62.22 230.07,62.21 230.46,62.19 230.84,62.18 231.23,62.16 231.61,62.14 232,62.13 232.38,62.11 232.77,62.09 233.15,62.08 233.53,62.07 233.92,62.05 234.3,62.04 234.69,62.03 235.07,62.02 235.46,62.02 235.84,62.01 236.23,62.01 236.61,62.01 236.99,62.01 237.38,62.01 237.76,62.01 238.15,62.01 238.53,62.01 238.92,62.01 239.3,62.01 239.68,62.01 240.07,62 240.45,62 240.84,61.99 241.22,61.99 241.61,61.98 241.99,61.96 242.38,61.95 242.76,61.93 243.14,61.91 243.53,61.89 243.91,61.87 244.3,61.84 244.68,61.81 245.07,61.78 245.45,61.74 245.84,61.7 246.22,61.66 246.6,61.61 246.99,61.56 247.37,61.51 247.76,61.45 248.14,61.39 248.53,61.33 248.91,61.26 249.3,61.2 249.68,61.13 250.06,61.06 250.45,60.99 250.83,60.92 251.22,60.85 251.6,60.78 251.99,60.71 252.37,60.65 252.76,60.59 253.14,60.53 253.52,60.48 253.91,60.44 254.29,60.39 254.68,60.35 255.06,60.32 255.45,60.29 255.83,60.26 256.22,60.24 256.6,60.22 256.98,60.2 257.37,60.19 257.75,60.17 258.14,60.17 258.52,60.16 258.91,60.15 259.29,60.15 259.68,60.14 260.06,60.14 260.44,60.14 260.83,60.14 261.21,60.13 261.6,60.13" stroke-dasharray="none" stroke="rgb(228,26,28)" stroke-width="0.75" opacity="1" stroke-opacity="1" fill="none"/>
          </g>
          <g id="Fig:densplot_01.xyplot.lines.group.4.panel.1.1.1">
            <polyline id="Fig:densplot_01.xyplot.lines.group.4.panel.1.1.1.1" points="64.67,61.96 65.06,62.55 65.44,63.33 65.83,64.33 66.21,65.58 66.6,67.13 66.99,69.02 67.37,71.29 67.76,74.01 68.14,77.27 68.53,81.14 68.92,85.61 69.3,90.71 69.69,96.46 70.07,102.87 70.46,109.93 70.85,117.62 71.23,125.96 71.62,134.74 72,143.87 72.39,153.22 72.77,162.63 73.16,171.93 73.55,180.97 73.93,189.41 74.32,197.11 74.7,203.9 75.09,209.62 75.48,214.12 75.86,217.3 76.25,219.07 76.63,219.18 77.02,217.72 77.41,214.83 77.79,210.6 78.18,205.12 78.56,198.54 78.95,191 79.34,182.66 79.72,173.71 80.11,164.46 80.49,155.06 80.88,145.69 81.27,136.5 81.65,127.63 82.04,119.2 82.42,111.4 82.81,104.21 83.2,97.67 83.58,91.78 83.97,86.54 84.35,81.94 84.74,77.95 85.13,74.62 85.51,71.8 85.9,69.43 86.28,67.47 86.67,65.86 87.06,64.56 87.44,63.51 87.83,62.71 88.21,62.09 88.6,61.62 88.99,61.26 89.37,61 89.76,60.81 90.14,60.7 90.53,60.65 90.92,60.67 91.3,60.73 91.69,60.85 92.07,61.04 92.46,61.29 92.85,61.63 93.23,62.06 93.62,62.63 94,63.34 94.39,64.2 94.78,65.25 95.16,66.5 95.55,67.97 95.93,69.69 96.32,71.73 96.71,74.06 97.09,76.68 97.48,79.6 97.86,82.81 98.25,86.3 98.64,90.04 99.02,94.01 99.41,98.15 99.79,102.38 100.18,106.62 100.57,110.82 100.95,114.88 101.34,118.72 101.72,122.25 102.11,125.33 102.5,127.94 102.88,130.01 103.27,131.51 103.65,132.41 104.04,132.7 104.43,132.38 104.81,131.37 105.2,129.85 105.58,127.87 105.97,125.51 106.36,122.87 106.74,120.02 107.13,117.05 107.51,114.09 107.9,111.24 108.29,108.57 108.67,106.16 109.06,104.04 109.44,102.26 109.83,100.83 110.22,99.81 110.6,99.18 110.99,98.86 111.37,98.83 111.76,99.03 112.15,99.41 112.53,99.92 112.92,100.5 113.3,101.09 113.69,101.62 114.08,102.06 114.46,102.38 114.85,102.55 115.23,102.57 115.62,102.43 116.01,102.1 116.39,101.65 116.78,101.08 117.16,100.44 117.55,99.73 117.94,99 118.32,98.27 118.71,97.57 119.09,96.91 119.48,96.31 119.87,95.78 120.25,95.32 120.64,94.91 121.02,94.56 121.41,94.27 121.8,94 122.18,93.75 122.57,93.51 122.95,93.26 123.34,93 123.73,92.72 124.11,92.41 124.5,92.08 124.88,91.73 125.27,91.36 125.66,90.97 126.04,90.58 126.43,90.18 126.81,89.78 127.2,89.39 127.59,89 127.97,88.63 128.36,88.26 128.74,87.89 129.13,87.53 129.52,87.18 129.9,86.83 130.29,86.48 130.67,86.14 131.06,85.79 131.45,85.44 131.83,85.1 132.22,84.75 132.6,84.41 132.99,84.08 133.38,83.74 133.76,83.42 134.15,83.1 134.53,82.78 134.92,82.48 135.31,82.18 135.69,81.89 136.08,81.6 136.46,81.33 136.85,81.05 137.24,80.78 137.62,80.52 138.01,80.26 138.39,80 138.78,79.75 139.17,79.5 139.55,79.25 139.94,79.01 140.32,78.77 140.71,78.53 141.1,78.3 141.48,78.07 141.87,77.85 142.25,77.62 142.64,77.41 143.03,77.19 143.41,76.98 143.8,76.78 144.18,76.58 144.57,76.38 144.95,76.19 145.34,75.99 145.73,75.8 146.11,75.62 146.5,75.43 146.88,75.24 147.27,75.06 147.66,74.87 148.04,74.69 148.43,74.5 148.81,74.31 149.2,74.13 149.59,73.94 149.97,73.75 150.36,73.57 150.74,73.38 151.13,73.19 151.52,73.01 151.9,72.83 152.29,72.65 152.67,72.47 153.06,72.29 153.45,72.12 153.83,71.95 154.22,71.79 154.6,71.63 154.99,71.47 155.38,71.32 155.76,71.17 156.15,71.03 156.53,70.89 156.92,70.76 157.31,70.63 157.69,70.5 158.08,70.38 158.46,70.26 158.85,70.14 159.24,70.03 159.62,69.92 160.01,69.81 160.39,69.7 160.78,69.6 161.17,69.49 161.55,69.39 161.94,69.29 162.32,69.19 162.71,69.09 163.1,68.99 163.48,68.89 163.87,68.79 164.25,68.7 164.64,68.6 165.03,68.5 165.41,68.41 165.8,68.31 166.18,68.22 166.57,68.12 166.96,68.03 167.34,67.94 167.73,67.85 168.11,67.76 168.5,67.67 168.89,67.59 169.27,67.5 169.66,67.42 170.04,67.34 170.43,67.27 170.82,67.19 171.2,67.12 171.59,67.06 171.97,66.99 172.36,66.93 172.75,66.88 173.13,66.83 173.52,66.78 173.9,66.74 174.29,66.7 174.68,66.66 175.06,66.63 175.45,66.6 175.83,66.57 176.22,66.54 176.61,66.52 176.99,66.49 177.38,66.47 177.76,66.44 178.15,66.41 178.54,66.38 178.92,66.35 179.31,66.32 179.69,66.28 180.08,66.24 180.47,66.2 180.85,66.15 181.24,66.1 181.62,66.05 182.01,65.99 182.4,65.93 182.78,65.87 183.17,65.8 183.55,65.73 183.94,65.66 184.33,65.59 184.71,65.52 185.1,65.45 185.48,65.37 185.87,65.3 186.26,65.23 186.64,65.16 187.03,65.09 187.41,65.02 187.8,64.96 188.19,64.89 188.57,64.83 188.96,64.77 189.34,64.72 189.73,64.67 190.12,64.62 190.5,64.57 190.89,64.53 191.27,64.49 191.66,64.45 192.05,64.42 192.43,64.38 192.82,64.35 193.2,64.32 193.59,64.29 193.98,64.27 194.36,64.24 194.75,64.22 195.13,64.19 195.52,64.17 195.91,64.15 196.29,64.12 196.68,64.1 197.06,64.08 197.45,64.06 197.84,64.03 198.22,64.01 198.61,63.99 198.99,63.96 199.38,63.94 199.77,63.92 200.15,63.89 200.54,63.87 200.92,63.84 201.31,63.81 201.7,63.78 202.08,63.75 202.47,63.72 202.85,63.69 203.24,63.65 203.63,63.62 204.01,63.58 204.4,63.54 204.78,63.5 205.17,63.46 205.56,63.42 205.94,63.38 206.33,63.34 206.71,63.3 207.1,63.26 207.49,63.22 207.87,63.18 208.26,63.15 208.64,63.12 209.03,63.09 209.42,63.06 209.8,63.04 210.19,63.01 210.57,63 210.96,62.98 211.35,62.96 211.73,62.95 212.12,62.94 212.5,62.93 212.89,62.93 213.28,62.92 213.66,62.91 214.05,62.91 214.43,62.9 214.82,62.9 215.21,62.89 215.59,62.89 215.98,62.88 216.36,62.87 216.75,62.87 217.13,62.86 217.52,62.84 217.91,62.83 218.29,62.82 218.68,62.8 219.06,62.79 219.45,62.77 219.84,62.76 220.22,62.74 220.61,62.72 220.99,62.7 221.38,62.68 221.77,62.67 222.15,62.65 222.54,62.63 222.92,62.62 223.31,62.6 223.7,62.59 224.08,62.57 224.47,62.56 224.85,62.55 225.24,62.54 225.63,62.53 226.01,62.52 226.4,62.51 226.78,62.5 227.17,62.49 227.56,62.48 227.94,62.47 228.33,62.46 228.71,62.45 229.1,62.44 229.49,62.43 229.87,62.41 230.26,62.4 230.64,62.39 231.03,62.37 231.42,62.35 231.8,62.34 232.19,62.32 232.57,62.3 232.96,62.28 233.35,62.26 233.73,62.24 234.12,62.22 234.5,62.2 234.89,62.19 235.28,62.17 235.66,62.15 236.05,62.13 236.43,62.12 236.82,62.1 237.21,62.09 237.59,62.08 237.98,62.06 238.36,62.05 238.75,62.04 239.14,62.02 239.52,62.01 239.91,62 240.29,61.99 240.68,61.97 241.07,61.96 241.45,61.94 241.84,61.93 242.22,61.91 242.61,61.89 243,61.87 243.38,61.84 243.77,61.82 244.15,61.79 244.54,61.76 244.93,61.72 245.31,61.68 245.7,61.64 246.08,61.6 246.47,61.55 246.86,61.5 247.24,61.44 247.63,61.38 248.01,61.32 248.4,61.26 248.79,61.19 249.17,61.12 249.56,61.06 249.94,60.99 250.33,60.92 250.72,60.85 251.1,60.79 251.49,60.72 251.87,60.66 252.26,60.61 252.65,60.55 253.03,60.5 253.42,60.45 253.8,60.41 254.19,60.37 254.58,60.34 254.96,60.31 255.35,60.28 255.73,60.25 256.12,60.23 256.51,60.21 256.89,60.2 257.28,60.19 257.66,60.17 258.05,60.17 258.44,60.16 258.82,60.15 259.21,60.15 259.59,60.14 259.98,60.14 260.37,60.14 260.75,60.14 261.14,60.13 261.52,60.13 261.91,60.13" stroke-dasharray="none" stroke="rgb(55,126,184)" stroke-width="0.75" opacity="1" stroke-opacity="1" fill="none"/>
          </g>
          <g id="Fig:densplot_01.xyplot.lines.group.5.panel.1.1.1">
            <polyline id="Fig:densplot_01.xyplot.lines.group.5.panel.1.1.1.1" points="64.88,62.09 65.26,62.76 65.65,63.61 66.03,64.7 66.42,66.05 66.8,67.72 67.19,69.83 67.57,72.4 67.96,75.48 68.34,79.13 68.73,83.4 69.11,88.33 69.5,93.95 69.88,100.37 70.27,107.59 70.66,115.52 71.04,124.1 71.43,133.27 71.81,142.94 72.2,152.97 72.58,163.22 72.97,173.48 73.35,183.51 73.74,193.1 74.12,202.05 74.51,210.14 74.89,217.18 75.28,223 75.66,227.2 76.05,229.79 76.43,230.77 76.82,230.11 77.2,227.84 77.59,224.01 77.98,218.72 78.36,212.03 78.75,204.1 79.13,195.29 79.52,185.81 79.9,175.86 80.29,165.65 80.67,155.38 81.06,145.24 81.44,135.48 81.83,126.19 82.21,117.49 82.6,109.43 82.98,102.07 83.37,95.44 83.75,89.53 84.14,84.43 84.52,80.05 84.91,76.28 85.3,73.09 85.68,70.42 86.07,68.21 86.45,66.4 86.84,64.96 87.22,63.83 87.61,62.94 87.99,62.24 88.38,61.7 88.76,61.28 89.15,60.97 89.53,60.75 89.92,60.59 90.3,60.49 90.69,60.42 91.07,60.39 91.46,60.39 91.85,60.43 92.23,60.49 92.62,60.6 93,60.75 93.39,60.96 93.77,61.23 94.16,61.58 94.54,62.02 94.93,62.58 95.31,63.27 95.7,64.14 96.08,65.2 96.47,66.46 96.85,67.95 97.24,69.7 97.62,71.71 98.01,74.01 98.39,76.64 98.78,79.58 99.17,82.8 99.55,86.29 99.94,90.01 100.32,93.92 100.71,97.99 101.09,102.13 101.48,106.27 101.86,110.32 102.25,114.19 102.63,117.79 103.02,121.06 103.4,123.91 103.79,126.26 104.17,127.96 104.56,129.06 104.94,129.55 105.33,129.42 105.72,128.69 106.1,127.39 106.49,125.59 106.87,123.28 107.26,120.63 107.64,117.74 108.03,114.71 108.41,111.63 108.8,108.61 109.18,105.72 109.57,103.07 109.95,100.76 110.34,98.8 110.72,97.22 111.11,96.04 111.49,95.26 111.88,94.85 112.26,94.8 112.65,95.11 113.04,95.65 113.42,96.36 113.81,97.19 114.19,98.07 114.58,98.95 114.96,99.76 115.35,100.43 115.73,100.94 116.12,101.26 116.5,101.38 116.89,101.3 117.27,101.03 117.66,100.58 118.04,99.97 118.43,99.24 118.81,98.43 119.2,97.58 119.59,96.73 119.97,95.89 120.36,95.11 120.74,94.39 121.13,93.78 121.51,93.25 121.9,92.81 122.28,92.44 122.67,92.14 123.05,91.89 123.44,91.67 123.82,91.47 124.21,91.27 124.59,91.05 124.98,90.81 125.36,90.53 125.75,90.23 126.13,89.88 126.52,89.51 126.91,89.11 127.29,88.7 127.68,88.28 128.06,87.86 128.45,87.45 128.83,87.05 129.22,86.67 129.6,86.31 129.99,85.97 130.37,85.65 130.76,85.35 131.14,85.06 131.53,84.79 131.91,84.53 132.3,84.27 132.68,84.02 133.07,83.77 133.45,83.53 133.84,83.28 134.23,83.04 134.61,82.8 135,82.57 135.38,82.33 135.77,82.1 136.15,81.87 136.54,81.64 136.92,81.42 137.31,81.19 137.69,80.97 138.08,80.74 138.46,80.51 138.85,80.28 139.23,80.05 139.62,79.81 140,79.58 140.39,79.34 140.78,79.1 141.16,78.86 141.55,78.62 141.93,78.37 142.32,78.13 142.7,77.89 143.09,77.65 143.47,77.4 143.86,77.16 144.24,76.93 144.63,76.69 145.01,76.45 145.4,76.22 145.78,75.99 146.17,75.76 146.55,75.54 146.94,75.32 147.32,75.11 147.71,74.89 148.1,74.68 148.48,74.48 148.87,74.28 149.25,74.08 149.64,73.89 150.02,73.71 150.41,73.52 150.79,73.35 151.18,73.17 151.56,73.01 151.95,72.85 152.33,72.69 152.72,72.54 153.1,72.4 153.49,72.26 153.87,72.12 154.26,72 154.65,71.88 155.03,71.76 155.42,71.65 155.8,71.55 156.19,71.45 156.57,71.35 156.96,71.26 157.34,71.17 157.73,71.09 158.11,71 158.5,70.92 158.88,70.84 159.27,70.76 159.65,70.68 160.04,70.6 160.42,70.52 160.81,70.44 161.19,70.36 161.58,70.27 161.97,70.18 162.35,70.09 162.74,69.99 163.12,69.9 163.51,69.8 163.89,69.7 164.28,69.59 164.66,69.49 165.05,69.38 165.43,69.27 165.82,69.16 166.2,69.05 166.59,68.95 166.97,68.84 167.36,68.73 167.74,68.63 168.13,68.53 168.52,68.43 168.9,68.34 169.29,68.25 169.67,68.16 170.06,68.08 170.44,68 170.83,67.93 171.21,67.86 171.6,67.79 171.98,67.73 172.37,67.67 172.75,67.61 173.14,67.55 173.52,67.5 173.91,67.44 174.29,67.39 174.68,67.33 175.06,67.28 175.45,67.22 175.84,67.16 176.22,67.1 176.61,67.04 176.99,66.97 177.38,66.9 177.76,66.83 178.15,66.76 178.53,66.68 178.92,66.6 179.3,66.52 179.69,66.43 180.07,66.35 180.46,66.26 180.84,66.17 181.23,66.08 181.61,66 182,65.91 182.39,65.83 182.77,65.75 183.16,65.67 183.54,65.6 183.93,65.53 184.31,65.47 184.7,65.41 185.08,65.35 185.47,65.3 185.85,65.26 186.24,65.22 186.62,65.18 187.01,65.15 187.39,65.12 187.78,65.1 188.16,65.07 188.55,65.05 188.93,65.02 189.32,65 189.71,64.97 190.09,64.95 190.48,64.92 190.86,64.89 191.25,64.86 191.63,64.82 192.02,64.79 192.4,64.75 192.79,64.71 193.17,64.67 193.56,64.63 193.94,64.58 194.33,64.54 194.71,64.5 195.1,64.45 195.48,64.41 195.87,64.36 196.25,64.32 196.64,64.28 197.03,64.24 197.41,64.2 197.8,64.16 198.18,64.12 198.57,64.08 198.95,64.04 199.34,64.01 199.72,63.97 200.11,63.94 200.49,63.9 200.88,63.86 201.26,63.83 201.65,63.79 202.03,63.75 202.42,63.72 202.8,63.68 203.19,63.64 203.58,63.6 203.96,63.56 204.35,63.52 204.73,63.47 205.12,63.43 205.5,63.39 205.89,63.34 206.27,63.3 206.66,63.26 207.04,63.21 207.43,63.17 207.81,63.14 208.2,63.1 208.58,63.06 208.97,63.03 209.35,63 209.74,62.98 210.12,62.96 210.51,62.94 210.9,62.92 211.28,62.91 211.67,62.91 212.05,62.9 212.44,62.9 212.82,62.9 213.21,62.91 213.59,62.91 213.98,62.92 214.36,62.93 214.75,62.93 215.13,62.94 215.52,62.95 215.9,62.95 216.29,62.96 216.67,62.96 217.06,62.96 217.45,62.96 217.83,62.96 218.22,62.95 218.6,62.94 218.99,62.93 219.37,62.92 219.76,62.91 220.14,62.89 220.53,62.88 220.91,62.86 221.3,62.84 221.68,62.82 222.07,62.8 222.45,62.78 222.84,62.76 223.22,62.74 223.61,62.72 223.99,62.7 224.38,62.68 224.77,62.66 225.15,62.64 225.54,62.61 225.92,62.59 226.31,62.57 226.69,62.54 227.08,62.52 227.46,62.49 227.85,62.47 228.23,62.45 228.62,62.42 229,62.4 229.39,62.38 229.77,62.36 230.16,62.34 230.54,62.33 230.93,62.31 231.32,62.3 231.7,62.29 232.09,62.28 232.47,62.27 232.86,62.26 233.24,62.26 233.63,62.25 234.01,62.25 234.4,62.25 234.78,62.24 235.17,62.24 235.55,62.23 235.94,62.23 236.32,62.22 236.71,62.21 237.09,62.2 237.48,62.19 237.86,62.17 238.25,62.16 238.64,62.14 239.02,62.12 239.41,62.11 239.79,62.09 240.18,62.07 240.56,62.05 240.95,62.03 241.33,62 241.72,61.98 242.1,61.96 242.49,61.94 242.87,61.92 243.26,61.89 243.64,61.87 244.03,61.84 244.41,61.81 244.8,61.78 245.18,61.74 245.57,61.7 245.96,61.66 246.34,61.61 246.73,61.56 247.11,61.51 247.5,61.45 247.88,61.39 248.27,61.32 248.65,61.26 249.04,61.19 249.42,61.12 249.81,61.05 250.19,60.97 250.58,60.9 250.96,60.83 251.35,60.77 251.73,60.7 252.12,60.64 252.51,60.58 252.89,60.53 253.28,60.48 253.66,60.43 254.05,60.39 254.43,60.35 254.82,60.32 255.2,60.29 255.59,60.26 255.97,60.24 256.36,60.22 256.74,60.2 257.13,60.19 257.51,60.18 257.9,60.17 258.28,60.16 258.67,60.15 259.05,60.15 259.44,60.14 259.83,60.14 260.21,60.14 260.6,60.14 260.98,60.13 261.37,60.13 261.75,60.13" stroke-dasharray="none" stroke="rgb(55,126,184)" stroke-width="0.75" opacity="1" stroke-opacity="1" fill="none"/>
          </g>
          <g id="Fig:densplot_01.xyplot.lines.group.6.panel.1.1.1">
            <polyline id="Fig:densplot_01.xyplot.lines.group.6.panel.1.1.1.1" points="64.64,61.85 65.02,62.41 65.41,63.14 65.79,64.08 66.18,65.25 66.57,66.71 66.95,68.48 67.34,70.62 67.73,73.18 68.11,76.21 68.5,79.85 68.89,84.05 69.27,88.84 69.66,94.25 70.05,100.27 70.43,106.9 70.82,114.12 71.21,121.94 71.59,130.2 71.98,138.79 72.37,147.58 72.75,156.43 73.14,165.19 73.53,173.69 73.91,181.68 74.3,188.95 74.69,195.37 75.07,200.79 75.46,205.06 75.85,208.1 76.23,209.8 76.62,210.03 77.01,208.71 77.39,206.04 77.78,202.1 78.17,197 78.55,190.85 78.94,183.8 79.32,176 79.71,167.6 80.1,158.9 80.48,150.06 80.87,141.24 81.26,132.58 81.64,124.21 82.03,116.25 82.42,108.86 82.8,102.07 83.19,95.87 83.58,90.29 83.96,85.33 84.35,80.97 84.74,77.18 85.12,73.98 85.51,71.31 85.9,69.06 86.28,67.2 86.67,65.67 87.06,64.44 87.44,63.47 87.83,62.72 88.22,62.17 88.6,61.77 88.99,61.51 89.38,61.36 89.76,61.31 90.15,61.37 90.54,61.53 90.92,61.81 91.31,62.21 91.7,62.73 92.08,63.39 92.47,64.21 92.85,65.21 93.24,66.4 93.63,67.84 94.01,69.53 94.4,71.48 94.79,73.68 95.17,76.16 95.56,78.91 95.95,81.92 96.33,85.2 96.72,88.7 97.11,92.38 97.49,96.18 97.88,100.05 98.27,103.92 98.65,107.73 99.04,111.39 99.43,114.79 99.81,117.88 100.2,120.6 100.59,122.88 100.97,124.69 101.36,125.99 101.75,126.75 102.13,126.87 102.52,126.49 102.91,125.63 103.29,124.35 103.68,122.7 104.07,120.75 104.45,118.58 104.84,116.28 105.22,113.94 105.61,111.67 106,109.51 106.38,107.54 106.77,105.79 107.16,104.3 107.54,103.13 107.93,102.28 108.32,101.7 108.7,101.37 109.09,101.26 109.48,101.33 109.86,101.54 110.25,101.84 110.64,102.19 111.02,102.52 111.41,102.8 111.8,103.01 112.18,103.13 112.57,103.14 112.96,103.04 113.34,102.81 113.73,102.49 114.12,102.09 114.5,101.63 114.89,101.13 115.28,100.61 115.66,100.08 116.05,99.58 116.44,99.11 116.82,98.67 117.21,98.27 117.6,97.91 117.98,97.58 118.37,97.28 118.75,97.01 119.14,96.74 119.53,96.47 119.91,96.2 120.3,95.92 120.69,95.62 121.07,95.3 121.46,94.96 121.85,94.61 122.23,94.25 122.62,93.87 123.01,93.49 123.39,93.11 123.78,92.72 124.17,92.34 124.55,91.96 124.94,91.59 125.33,91.23 125.71,90.87 126.1,90.52 126.49,90.17 126.87,89.82 127.26,89.47 127.65,89.13 128.03,88.79 128.42,88.45 128.81,88.11 129.19,87.77 129.58,87.44 129.97,87.1 130.35,86.77 130.74,86.44 131.13,86.12 131.51,85.79 131.9,85.48 132.28,85.16 132.67,84.85 133.06,84.54 133.44,84.24 133.83,83.94 134.22,83.65 134.6,83.36 134.99,83.07 135.38,82.78 135.76,82.5 136.15,82.22 136.54,81.94 136.92,81.67 137.31,81.39 137.7,81.12 138.08,80.85 138.47,80.58 138.86,80.3 139.24,80.03 139.63,79.76 140.02,79.49 140.4,79.22 140.79,78.95 141.18,78.69 141.56,78.43 141.95,78.17 142.34,77.91 142.72,77.66 143.11,77.41 143.5,77.17 143.88,76.93 144.27,76.7 144.66,76.48 145.04,76.25 145.43,76.04 145.81,75.82 146.2,75.62 146.59,75.41 146.97,75.22 147.36,75.02 147.75,74.83 148.13,74.64 148.52,74.46 148.91,74.28 149.29,74.1 149.68,73.93 150.07,73.76 150.45,73.59 150.84,73.43 151.23,73.27 151.61,73.12 152,72.97 152.39,72.83 152.77,72.69 153.16,72.55 153.55,72.42 153.93,72.29 154.32,72.16 154.71,72.03 155.09,71.91 155.48,71.79 155.87,71.67 156.25,71.55 156.64,71.44 157.03,71.32 157.41,71.2 157.8,71.09 158.18,70.97 158.57,70.85 158.96,70.74 159.34,70.63 159.73,70.51 160.12,70.4 160.5,70.29 160.89,70.19 161.28,70.08 161.66,69.98 162.05,69.88 162.44,69.78 162.82,69.68 163.21,69.59 163.6,69.5 163.98,69.41 164.37,69.32 164.76,69.23 165.14,69.15 165.53,69.07 165.92,68.98 166.3,68.9 166.69,68.83 167.08,68.75 167.46,68.68 167.85,68.6 168.24,68.53 168.62,68.47 169.01,68.4 169.4,68.33 169.78,68.27 170.17,68.21 170.56,68.15 170.94,68.1 171.33,68.04 171.71,67.98 172.1,67.93 172.49,67.87 172.87,67.82 173.26,67.76 173.65,67.71 174.03,67.65 174.42,67.6 174.81,67.54 175.19,67.49 175.58,67.43 175.97,67.37 176.35,67.31 176.74,67.25 177.13,67.19 177.51,67.13 177.9,67.07 178.29,67.01 178.67,66.95 179.06,66.88 179.45,66.82 179.83,66.75 180.22,66.68 180.61,66.61 180.99,66.54 181.38,66.47 181.77,66.4 182.15,66.33 182.54,66.26 182.93,66.19 183.31,66.12 183.7,66.05 184.09,65.99 184.47,65.92 184.86,65.86 185.24,65.79 185.63,65.74 186.02,65.68 186.4,65.63 186.79,65.57 187.18,65.53 187.56,65.48 187.95,65.43 188.34,65.39 188.72,65.35 189.11,65.31 189.5,65.27 189.88,65.23 190.27,65.19 190.66,65.15 191.04,65.11 191.43,65.07 191.82,65.02 192.2,64.98 192.59,64.93 192.98,64.88 193.36,64.83 193.75,64.78 194.14,64.73 194.52,64.68 194.91,64.62 195.3,64.57 195.68,64.52 196.07,64.46 196.46,64.41 196.84,64.35 197.23,64.3 197.62,64.25 198,64.2 198.39,64.16 198.77,64.11 199.16,64.07 199.55,64.03 199.93,63.99 200.32,63.95 200.71,63.92 201.09,63.89 201.48,63.85 201.87,63.82 202.25,63.8 202.64,63.77 203.03,63.74 203.41,63.72 203.8,63.69 204.19,63.67 204.57,63.64 204.96,63.62 205.35,63.59 205.73,63.56 206.12,63.54 206.51,63.51 206.89,63.49 207.28,63.46 207.67,63.43 208.05,63.41 208.44,63.38 208.83,63.36 209.21,63.33 209.6,63.31 209.99,63.29 210.37,63.27 210.76,63.25 211.14,63.24 211.53,63.22 211.92,63.21 212.3,63.2 212.69,63.2 213.08,63.19 213.46,63.19 213.85,63.18 214.24,63.18 214.62,63.18 215.01,63.18 215.4,63.18 215.78,63.17 216.17,63.17 216.56,63.17 216.94,63.16 217.33,63.16 217.72,63.15 218.1,63.14 218.49,63.13 218.88,63.12 219.26,63.1 219.65,63.09 220.04,63.07 220.42,63.05 220.81,63.03 221.2,63.01 221.58,62.99 221.97,62.96 222.36,62.94 222.74,62.91 223.13,62.88 223.52,62.86 223.9,62.83 224.29,62.8 224.67,62.77 225.06,62.74 225.45,62.71 225.83,62.68 226.22,62.65 226.61,62.63 226.99,62.6 227.38,62.58 227.77,62.56 228.15,62.53 228.54,62.52 228.93,62.5 229.31,62.48 229.7,62.47 230.09,62.45 230.47,62.44 230.86,62.43 231.25,62.42 231.63,62.4 232.02,62.39 232.41,62.38 232.79,62.37 233.18,62.35 233.57,62.34 233.95,62.33 234.34,62.31 234.73,62.29 235.11,62.28 235.5,62.26 235.89,62.24 236.27,62.22 236.66,62.2 237.05,62.18 237.43,62.16 237.82,62.13 238.2,62.11 238.59,62.09 238.98,62.06 239.36,62.04 239.75,62.01 240.14,61.99 240.52,61.96 240.91,61.94 241.3,61.91 241.68,61.89 242.07,61.86 242.46,61.83 242.84,61.8 243.23,61.77 243.62,61.74 244,61.71 244.39,61.68 244.78,61.64 245.16,61.6 245.55,61.57 245.94,61.52 246.32,61.48 246.71,61.44 247.1,61.39 247.48,61.34 247.87,61.28 248.26,61.23 248.64,61.17 249.03,61.11 249.42,61.05 249.8,60.99 250.19,60.93 250.58,60.87 250.96,60.81 251.35,60.75 251.73,60.69 252.12,60.63 252.51,60.58 252.89,60.53 253.28,60.48 253.67,60.44 254.05,60.4 254.44,60.36 254.83,60.33 255.21,60.3 255.6,60.27 255.99,60.25 256.37,60.23 256.76,60.21 257.15,60.2 257.53,60.18 257.92,60.17 258.31,60.16 258.69,60.16 259.08,60.15 259.47,60.15 259.85,60.14 260.24,60.14 260.63,60.14 261.01,60.14 261.4,60.13 261.79,60.13 262.17,60.13" stroke-dasharray="none" stroke="rgb(55,126,184)" stroke-width="0.75" opacity="1" stroke-opacity="1" fill="none"/>
          </g>
          <g id="Fig:densplot_01.xyplot.lines.group.7.panel.1.1.1">
            <polyline id="Fig:densplot_01.xyplot.lines.group.7.panel.1.1.1.1" points="64.63,61.78 65.02,62.32 65.4,63.01 65.79,63.92 66.18,65.05 66.56,66.44 66.95,68.15 67.34,70.2 67.72,72.66 68.11,75.55 68.49,79.03 68.88,83.06 69.27,87.66 69.65,92.85 70.04,98.63 70.43,104.99 70.81,111.91 71.2,119.4 71.58,127.34 71.97,135.58 72.36,144.02 72.74,152.53 73.13,160.94 73.52,169.11 73.9,176.83 74.29,183.83 74.67,190.02 75.06,195.25 75.45,199.39 75.83,202.34 76.22,204.01 76.61,204.33 76.99,203.1 77.38,200.57 77.76,196.83 78.15,191.96 78.54,186.08 78.92,179.34 79.31,171.89 79.7,163.84 80.08,155.48 80.47,146.99 80.85,138.51 81.24,130.19 81.63,122.14 82.01,114.46 82.4,107.33 82.79,100.77 83.17,94.79 83.56,89.4 83.94,84.61 84.33,80.39 84.72,76.72 85.1,73.61 85.49,71.02 85.88,68.85 86.26,67.05 86.65,65.58 87.03,64.39 87.42,63.46 87.81,62.75 88.19,62.25 88.58,61.9 88.97,61.69 89.35,61.61 89.74,61.65 90.12,61.81 90.51,62.1 90.9,62.53 91.28,63.11 91.67,63.85 92.06,64.76 92.44,65.87 92.83,67.19 93.21,68.74 93.6,70.57 93.99,72.69 94.37,75.08 94.76,77.75 95.15,80.7 95.53,83.91 95.92,87.36 96.3,91.04 96.69,94.9 97.08,98.86 97.46,102.86 97.85,106.83 98.24,110.7 98.62,114.4 99.01,117.84 99.39,120.89 99.78,123.53 100.17,125.7 100.55,127.37 100.94,128.51 101.33,129.1 101.71,129.15 102.1,128.59 102.48,127.57 102.87,126.13 103.26,124.36 103.64,122.33 104.03,120.11 104.42,117.79 104.8,115.46 105.19,113.22 105.57,111.13 105.96,109.24 106.35,107.59 106.73,106.21 107.12,105.11 107.51,104.31 107.89,103.8 108.28,103.52 108.66,103.43 109.05,103.48 109.44,103.65 109.82,103.87 110.21,104.11 110.6,104.32 110.98,104.47 111.37,104.53 111.75,104.49 112.14,104.35 112.53,104.1 112.91,103.76 113.3,103.32 113.69,102.82 114.07,102.28 114.46,101.72 114.84,101.15 115.23,100.6 115.62,100.07 116,99.58 116.39,99.13 116.78,98.72 117.16,98.35 117.55,98.01 117.93,97.69 118.32,97.4 118.71,97.12 119.09,96.84 119.48,96.56 119.87,96.27 120.25,95.98 120.64,95.68 121.02,95.36 121.41,95.04 121.8,94.71 122.18,94.38 122.57,94.04 122.96,93.7 123.34,93.37 123.73,93.03 124.11,92.7 124.5,92.36 124.89,92.03 125.27,91.7 125.66,91.38 126.05,91.05 126.43,90.72 126.82,90.39 127.2,90.06 127.59,89.73 127.98,89.4 128.36,89.07 128.75,88.74 129.14,88.41 129.52,88.09 129.91,87.76 130.29,87.44 130.68,87.11 131.07,86.79 131.45,86.47 131.84,86.14 132.22,85.82 132.61,85.49 133,85.16 133.38,84.83 133.77,84.49 134.16,84.16 134.54,83.82 134.93,83.48 135.31,83.14 135.7,82.81 136.09,82.47 136.47,82.14 136.86,81.81 137.25,81.49 137.63,81.17 138.02,80.86 138.4,80.56 138.79,80.27 139.18,79.98 139.56,79.7 139.95,79.43 140.34,79.17 140.72,78.92 141.11,78.67 141.49,78.43 141.88,78.19 142.27,77.96 142.65,77.73 143.04,77.5 143.43,77.28 143.81,77.06 144.2,76.83 144.58,76.61 144.97,76.39 145.36,76.17 145.74,75.94 146.13,75.72 146.52,75.5 146.9,75.27 147.29,75.05 147.67,74.83 148.06,74.61 148.45,74.4 148.83,74.18 149.22,73.98 149.61,73.77 149.99,73.57 150.38,73.38 150.76,73.19 151.15,73 151.54,72.82 151.92,72.65 152.31,72.49 152.7,72.33 153.08,72.17 153.47,72.03 153.85,71.89 154.24,71.75 154.63,71.63 155.01,71.51 155.4,71.39 155.79,71.29 156.17,71.18 156.56,71.09 156.94,71 157.33,70.91 157.72,70.83 158.1,70.75 158.49,70.68 158.88,70.6 159.26,70.53 159.65,70.46 160.03,70.39 160.42,70.32 160.81,70.25 161.19,70.18 161.58,70.11 161.97,70.03 162.35,69.95 162.74,69.87 163.12,69.79 163.51,69.7 163.9,69.61 164.28,69.52 164.67,69.43 165.06,69.34 165.44,69.24 165.83,69.14 166.21,69.05 166.6,68.95 166.99,68.85 167.37,68.76 167.76,68.67 168.15,68.58 168.53,68.49 168.92,68.4 169.3,68.32 169.69,68.24 170.08,68.17 170.46,68.09 170.85,68.02 171.24,67.96 171.62,67.89 172.01,67.83 172.39,67.76 172.78,67.7 173.17,67.64 173.55,67.58 173.94,67.52 174.33,67.46 174.71,67.39 175.1,67.33 175.48,67.26 175.87,67.19 176.26,67.12 176.64,67.05 177.03,66.97 177.42,66.9 177.8,66.82 178.19,66.75 178.57,66.67 178.96,66.59 179.35,66.52 179.73,66.44 180.12,66.37 180.51,66.3 180.89,66.23 181.28,66.16 181.66,66.1 182.05,66.04 182.44,65.98 182.82,65.93 183.21,65.87 183.6,65.83 183.98,65.78 184.37,65.73 184.75,65.69 185.14,65.65 185.53,65.6 185.91,65.56 186.3,65.51 186.69,65.47 187.07,65.42 187.46,65.37 187.84,65.32 188.23,65.27 188.62,65.22 189,65.16 189.39,65.1 189.78,65.04 190.16,64.98 190.55,64.92 190.93,64.86 191.32,64.8 191.71,64.74 192.09,64.68 192.48,64.62 192.87,64.57 193.25,64.51 193.64,64.46 194.02,64.41 194.41,64.36 194.8,64.31 195.18,64.27 195.57,64.23 195.96,64.19 196.34,64.15 196.73,64.11 197.11,64.07 197.5,64.04 197.89,64 198.27,63.97 198.66,63.94 199.05,63.9 199.43,63.87 199.82,63.84 200.2,63.82 200.59,63.79 200.98,63.76 201.36,63.74 201.75,63.72 202.14,63.7 202.52,63.68 202.91,63.66 203.29,63.64 203.68,63.63 204.07,63.62 204.45,63.61 204.84,63.6 205.23,63.59 205.61,63.58 206,63.57 206.38,63.56 206.77,63.55 207.16,63.54 207.54,63.53 207.93,63.52 208.32,63.5 208.7,63.49 209.09,63.47 209.47,63.45 209.86,63.43 210.25,63.41 210.63,63.39 211.02,63.36 211.41,63.34 211.79,63.31 212.18,63.29 212.56,63.26 212.95,63.23 213.34,63.2 213.72,63.17 214.11,63.14 214.5,63.11 214.88,63.08 215.27,63.05 215.65,63.02 216.04,62.99 216.43,62.96 216.81,62.93 217.2,62.9 217.59,62.87 217.97,62.84 218.36,62.81 218.74,62.79 219.13,62.76 219.52,62.74 219.9,62.72 220.29,62.7 220.68,62.69 221.06,62.67 221.45,62.66 221.83,62.65 222.22,62.64 222.61,62.63 222.99,62.62 223.38,62.62 223.77,62.61 224.15,62.6 224.54,62.6 224.92,62.59 225.31,62.58 225.7,62.57 226.08,62.56 226.47,62.54 226.86,62.53 227.24,62.51 227.63,62.5 228.01,62.48 228.4,62.46 228.79,62.44 229.17,62.42 229.56,62.4 229.95,62.38 230.33,62.36 230.72,62.34 231.1,62.33 231.49,62.31 231.88,62.3 232.26,62.28 232.65,62.27 233.04,62.26 233.42,62.25 233.81,62.25 234.19,62.24 234.58,62.23 234.97,62.22 235.35,62.22 235.74,62.21 236.13,62.2 236.51,62.2 236.9,62.19 237.28,62.18 237.67,62.17 238.06,62.17 238.44,62.16 238.83,62.15 239.22,62.14 239.6,62.13 239.99,62.12 240.37,62.11 240.76,62.1 241.15,62.09 241.53,62.08 241.92,62.07 242.31,62.06 242.69,62.05 243.08,62.03 243.46,62.01 243.85,62 244.24,61.97 244.62,61.95 245.01,61.92 245.4,61.89 245.78,61.85 246.17,61.81 246.55,61.76 246.94,61.72 247.33,61.66 247.71,61.6 248.1,61.54 248.49,61.47 248.87,61.4 249.26,61.33 249.64,61.25 250.03,61.18 250.42,61.1 250.8,61.02 251.19,60.95 251.58,60.87 251.96,60.8 252.35,60.73 252.73,60.66 253.12,60.6 253.51,60.54 253.89,60.49 254.28,60.44 254.67,60.4 255.05,60.36 255.44,60.32 255.82,60.29 256.21,60.26 256.6,60.24 256.98,60.22 257.37,60.2 257.76,60.19 258.14,60.18 258.53,60.17 258.91,60.16 259.3,60.15 259.69,60.15 260.07,60.14 260.46,60.14 260.85,60.14 261.23,60.14 261.62,60.13 262,60.13" stroke-dasharray="none" stroke="rgb(77,175,74)" stroke-width="0.75" opacity="1" stroke-opacity="1" fill="none"/>
          </g>
          <g id="Fig:densplot_01.xyplot.lines.group.8.panel.1.1.1">
            <polyline id="Fig:densplot_01.xyplot.lines.group.8.panel.1.1.1.1" points="64.93,61.56 65.31,62.05 65.7,62.68 66.08,63.47 66.47,64.45 66.85,65.71 67.24,67.27 67.62,69.16 68.01,71.42 68.39,74.1 68.78,77.23 69.17,80.85 69.55,85.02 69.94,89.79 70.32,95.09 70.71,100.91 71.09,107.21 71.48,113.94 71.86,121.03 72.25,128.39 72.63,135.91 73.02,143.39 73.4,150.7 73.79,157.68 74.17,164.18 74.56,170.04 74.94,175.12 75.33,179.16 75.71,182.07 76.1,183.84 76.48,184.42 76.87,183.8 77.26,182 77.64,179.06 78.03,175.01 78.41,169.9 78.8,164.02 79.18,157.5 79.57,150.51 79.95,143.2 80.34,135.71 80.72,128.2 81.11,120.85 81.49,113.77 81.88,107.06 82.26,100.78 82.65,94.99 83.03,89.73 83.42,85.01 83.8,80.88 84.19,77.33 84.57,74.3 84.96,71.74 85.35,69.63 85.73,67.94 86.12,66.63 86.5,65.68 86.89,65.11 87.27,64.84 87.66,64.86 88.04,65.16 88.43,65.73 88.81,66.59 89.2,67.74 89.58,69.2 89.97,70.99 90.35,73.09 90.74,75.49 91.12,78.19 91.51,81.2 91.89,84.48 92.28,88.03 92.66,91.82 93.05,95.76 93.44,99.81 93.82,103.88 94.21,107.92 94.59,111.85 94.98,115.59 95.36,119.02 95.75,122.07 96.13,124.71 96.52,126.89 96.9,128.57 97.29,129.73 97.67,130.38 98.06,130.48 98.44,130.08 98.83,129.28 99.21,128.13 99.6,126.71 99.98,125.09 100.37,123.35 100.75,121.56 101.14,119.8 101.53,118.14 101.91,116.63 102.3,115.28 102.68,114.12 103.07,113.16 103.45,112.38 103.84,111.81 104.22,111.39 104.61,111.09 104.99,110.87 105.38,110.7 105.76,110.57 106.15,110.44 106.53,110.28 106.92,110.09 107.3,109.86 107.69,109.59 108.07,109.27 108.46,108.92 108.84,108.54 109.23,108.14 109.62,107.73 110,107.32 110.39,106.9 110.77,106.5 111.16,106.1 111.54,105.71 111.93,105.32 112.31,104.95 112.7,104.57 113.08,104.19 113.47,103.8 113.85,103.41 114.24,103.02 114.62,102.61 115.01,102.21 115.39,101.79 115.78,101.37 116.16,100.96 116.55,100.54 116.93,100.12 117.32,99.71 117.71,99.29 118.09,98.89 118.48,98.48 118.86,98.09 119.25,97.69 119.63,97.3 120.02,96.91 120.4,96.52 120.79,96.13 121.17,95.75 121.56,95.37 121.94,94.99 122.33,94.61 122.71,94.23 123.1,93.85 123.48,93.47 123.87,93.1 124.25,92.72 124.64,92.35 125.02,91.98 125.41,91.61 125.8,91.24 126.18,90.88 126.57,90.51 126.95,90.15 127.34,89.79 127.72,89.43 128.11,89.07 128.49,88.71 128.88,88.35 129.26,87.99 129.65,87.63 130.03,87.27 130.42,86.91 130.8,86.55 131.19,86.2 131.57,85.84 131.96,85.49 132.34,85.14 132.73,84.79 133.12,84.45 133.5,84.11 133.89,83.77 134.27,83.44 134.66,83.11 135.04,82.79 135.43,82.48 135.81,82.17 136.2,81.86 136.58,81.56 136.97,81.27 137.35,80.97 137.74,80.69 138.12,80.4 138.51,80.12 138.89,79.85 139.28,79.57 139.66,79.3 140.05,79.04 140.43,78.77 140.82,78.51 141.21,78.24 141.59,77.98 141.98,77.73 142.36,77.47 142.75,77.22 143.13,76.97 143.52,76.72 143.9,76.48 144.29,76.24 144.67,76.01 145.06,75.78 145.44,75.55 145.83,75.33 146.21,75.12 146.6,74.91 146.98,74.71 147.37,74.52 147.75,74.33 148.14,74.14 148.52,73.97 148.91,73.8 149.3,73.63 149.68,73.48 150.07,73.33 150.45,73.18 150.84,73.04 151.22,72.91 151.61,72.78 151.99,72.65 152.38,72.53 152.76,72.41 153.15,72.3 153.53,72.19 153.92,72.08 154.3,71.97 154.69,71.87 155.07,71.76 155.46,71.66 155.84,71.56 156.23,71.46 156.61,71.36 157,71.26 157.39,71.16 157.77,71.06 158.16,70.97 158.54,70.87 158.93,70.78 159.31,70.69 159.7,70.6 160.08,70.51 160.47,70.42 160.85,70.34 161.24,70.25 161.62,70.17 162.01,70.09 162.39,70 162.78,69.92 163.16,69.84 163.55,69.75 163.93,69.67 164.32,69.58 164.7,69.49 165.09,69.4 165.48,69.31 165.86,69.22 166.25,69.12 166.63,69.03 167.02,68.93 167.4,68.83 167.79,68.73 168.17,68.63 168.56,68.53 168.94,68.43 169.33,68.33 169.71,68.23 170.1,68.13 170.48,68.03 170.87,67.93 171.25,67.83 171.64,67.74 172.02,67.65 172.41,67.56 172.79,67.47 173.18,67.38 173.57,67.29 173.95,67.21 174.34,67.13 174.72,67.05 175.11,66.97 175.49,66.89 175.88,66.81 176.26,66.73 176.65,66.65 177.03,66.58 177.42,66.5 177.8,66.43 178.19,66.35 178.57,66.28 178.96,66.21 179.34,66.14 179.73,66.08 180.11,66.01 180.5,65.95 180.88,65.89 181.27,65.84 181.66,65.78 182.04,65.73 182.43,65.68 182.81,65.63 183.2,65.59 183.58,65.54 183.97,65.5 184.35,65.46 184.74,65.42 185.12,65.38 185.51,65.35 185.89,65.31 186.28,65.27 186.66,65.23 187.05,65.19 187.43,65.15 187.82,65.11 188.2,65.07 188.59,65.02 188.97,64.98 189.36,64.93 189.75,64.89 190.13,64.84 190.52,64.8 190.9,64.75 191.29,64.7 191.67,64.65 192.06,64.61 192.44,64.56 192.83,64.51 193.21,64.46 193.6,64.42 193.98,64.37 194.37,64.33 194.75,64.29 195.14,64.24 195.52,64.2 195.91,64.16 196.29,64.12 196.68,64.08 197.07,64.04 197.45,64.01 197.84,63.97 198.22,63.94 198.61,63.9 198.99,63.87 199.38,63.84 199.76,63.81 200.15,63.79 200.53,63.76 200.92,63.74 201.3,63.72 201.69,63.7 202.07,63.68 202.46,63.66 202.84,63.65 203.23,63.64 203.61,63.63 204,63.61 204.38,63.6 204.77,63.59 205.16,63.59 205.54,63.58 205.93,63.57 206.31,63.56 206.7,63.55 207.08,63.54 207.47,63.53 207.85,63.51 208.24,63.5 208.62,63.49 209.01,63.47 209.39,63.45 209.78,63.44 210.16,63.42 210.55,63.4 210.93,63.38 211.32,63.36 211.7,63.34 212.09,63.31 212.47,63.29 212.86,63.27 213.25,63.24 213.63,63.22 214.02,63.19 214.4,63.17 214.79,63.14 215.17,63.12 215.56,63.09 215.94,63.06 216.33,63.04 216.71,63.01 217.1,62.99 217.48,62.96 217.87,62.93 218.25,62.9 218.64,62.88 219.02,62.85 219.41,62.81 219.79,62.78 220.18,62.75 220.56,62.72 220.95,62.69 221.34,62.65 221.72,62.62 222.11,62.59 222.49,62.56 222.88,62.53 223.26,62.5 223.65,62.47 224.03,62.45 224.42,62.43 224.8,62.41 225.19,62.4 225.57,62.39 225.96,62.38 226.34,62.37 226.73,62.37 227.11,62.37 227.5,62.37 227.88,62.37 228.27,62.38 228.65,62.38 229.04,62.39 229.43,62.4 229.81,62.41 230.2,62.42 230.58,62.43 230.97,62.43 231.35,62.44 231.74,62.45 232.12,62.45 232.51,62.45 232.89,62.46 233.28,62.46 233.66,62.46 234.05,62.45 234.43,62.45 234.82,62.45 235.2,62.44 235.59,62.43 235.97,62.42 236.36,62.41 236.74,62.4 237.13,62.39 237.52,62.37 237.9,62.36 238.29,62.34 238.67,62.32 239.06,62.3 239.44,62.28 239.83,62.26 240.21,62.24 240.6,62.21 240.98,62.19 241.37,62.16 241.75,62.13 242.14,62.09 242.52,62.06 242.91,62.02 243.29,61.98 243.68,61.94 244.06,61.9 244.45,61.85 244.83,61.8 245.22,61.75 245.61,61.69 245.99,61.64 246.38,61.58 246.76,61.52 247.15,61.45 247.53,61.39 247.92,61.32 248.3,61.25 248.69,61.18 249.07,61.11 249.46,61.04 249.84,60.97 250.23,60.9 250.61,60.83 251,60.77 251.38,60.71 251.77,60.65 252.15,60.59 252.54,60.54 252.92,60.49 253.31,60.44 253.7,60.4 254.08,60.36 254.47,60.33 254.85,60.3 255.24,60.27 255.62,60.25 256.01,60.23 256.39,60.21 256.78,60.19 257.16,60.18 257.55,60.17 257.93,60.16 258.32,60.16 258.7,60.15 259.09,60.15 259.47,60.14 259.86,60.14 260.24,60.14 260.63,60.14 261.02,60.13 261.4,60.13 261.79,60.13" stroke-dasharray="none" stroke="rgb(77,175,74)" stroke-width="0.75" opacity="1" stroke-opacity="1" fill="none"/>
          </g>
          <g id="Fig:densplot_01.xyplot.lines.group.9.panel.1.1.1">
            <polyline id="Fig:densplot_01.xyplot.lines.group.9.panel.1.1.1.1" points="64.69,61.7 65.08,62.22 65.46,62.9 65.85,63.76 66.23,64.85 66.62,66.18 67.01,67.81 67.39,69.78 67.78,72.13 68.16,74.98 68.55,78.33 68.94,82.2 69.32,86.61 69.71,91.59 70.09,97.14 70.48,103.26 70.87,109.95 71.25,117.16 71.64,124.76 72.02,132.66 72.41,140.74 72.8,148.87 73.18,156.92 73.57,164.7 73.95,171.97 74.34,178.6 74.72,184.44 75.11,189.34 75.5,193.2 75.88,195.9 76.27,197.37 76.65,197.34 77.04,196.02 77.43,193.47 77.81,189.75 78.2,184.96 78.58,179.22 78.97,172.67 79.36,165.39 79.74,157.64 80.13,149.63 80.51,141.51 80.9,133.41 81.29,125.48 81.67,117.83 82.06,110.6 82.44,103.9 82.83,97.73 83.21,92.11 83.6,87.06 83.99,82.59 84.37,78.66 84.76,75.27 85.14,72.45 85.53,70.07 85.92,68.08 86.3,66.45 86.69,65.13 87.07,64.09 87.46,63.3 87.85,62.75 88.23,62.39 88.62,62.2 89,62.16 89.39,62.28 89.77,62.55 90.16,62.97 90.55,63.58 90.93,64.38 91.32,65.38 91.7,66.59 92.09,68.03 92.48,69.73 92.86,71.68 93.25,73.93 93.63,76.5 94.02,79.35 94.41,82.48 94.79,85.85 95.18,89.46 95.56,93.26 95.95,97.2 96.34,101.24 96.72,105.28 97.11,109.25 97.49,113.07 97.88,116.66 98.26,119.97 98.65,122.91 99.04,125.36 99.42,127.29 99.81,128.7 100.19,129.57 100.58,129.91 100.97,129.72 101.35,129.04 101.74,127.89 102.12,126.33 102.51,124.5 102.9,122.46 103.28,120.3 103.67,118.1 104.05,115.93 104.44,113.87 104.83,112.01 105.21,110.37 105.6,108.98 105.98,107.85 106.37,106.97 106.75,106.34 107.14,105.94 107.53,105.75 107.91,105.71 108.3,105.75 108.68,105.86 109.07,105.97 109.46,106.07 109.84,106.12 110.23,106.09 110.61,105.97 111,105.75 111.39,105.45 111.77,105.06 112.16,104.61 112.54,104.1 112.93,103.56 113.32,103 113.7,102.45 114.09,101.91 114.47,101.39 114.86,100.9 115.24,100.45 115.63,100.04 116.02,99.66 116.4,99.3 116.79,98.97 117.17,98.65 117.56,98.34 117.95,98.03 118.33,97.72 118.72,97.41 119.1,97.1 119.49,96.78 119.88,96.45 120.26,96.13 120.65,95.8 121.03,95.47 121.42,95.14 121.8,94.82 122.19,94.5 122.58,94.18 122.96,93.86 123.35,93.54 123.73,93.23 124.12,92.91 124.51,92.6 124.89,92.28 125.28,91.95 125.66,91.62 126.05,91.29 126.44,90.96 126.82,90.62 127.21,90.27 127.59,89.92 127.98,89.57 128.37,89.22 128.75,88.86 129.14,88.5 129.52,88.13 129.91,87.77 130.29,87.41 130.68,87.04 131.07,86.68 131.45,86.32 131.84,85.97 132.22,85.61 132.61,85.26 133,84.92 133.38,84.58 133.77,84.25 134.15,83.92 134.54,83.6 134.93,83.28 135.31,82.97 135.7,82.67 136.08,82.37 136.47,82.08 136.86,81.79 137.24,81.52 137.63,81.24 138.01,80.97 138.4,80.71 138.78,80.46 139.17,80.2 139.56,79.95 139.94,79.71 140.33,79.46 140.71,79.22 141.1,78.99 141.49,78.75 141.87,78.51 142.26,78.27 142.64,78.04 143.03,77.8 143.42,77.56 143.8,77.33 144.19,77.09 144.57,76.85 144.96,76.62 145.34,76.38 145.73,76.15 146.12,75.92 146.5,75.7 146.89,75.48 147.27,75.26 147.66,75.05 148.05,74.85 148.43,74.65 148.82,74.45 149.2,74.26 149.59,74.08 149.98,73.9 150.36,73.73 150.75,73.57 151.13,73.41 151.52,73.25 151.91,73.1 152.29,72.95 152.68,72.8 153.06,72.66 153.45,72.51 153.83,72.37 154.22,72.24 154.61,72.1 154.99,71.97 155.38,71.84 155.76,71.71 156.15,71.58 156.54,71.45 156.92,71.33 157.31,71.21 157.69,71.1 158.08,70.98 158.47,70.87 158.85,70.77 159.24,70.66 159.62,70.56 160.01,70.47 160.4,70.38 160.78,70.29 161.17,70.2 161.55,70.11 161.94,70.03 162.32,69.95 162.71,69.86 163.1,69.78 163.48,69.7 163.87,69.62 164.25,69.54 164.64,69.46 165.03,69.37 165.41,69.29 165.8,69.2 166.18,69.12 166.57,69.03 166.96,68.94 167.34,68.86 167.73,68.77 168.11,68.68 168.5,68.6 168.89,68.51 169.27,68.43 169.66,68.35 170.04,68.27 170.43,68.19 170.81,68.11 171.2,68.04 171.59,67.96 171.97,67.89 172.36,67.81 172.74,67.74 173.13,67.67 173.52,67.6 173.9,67.53 174.29,67.45 174.67,67.38 175.06,67.3 175.45,67.22 175.83,67.15 176.22,67.07 176.6,66.99 176.99,66.91 177.37,66.83 177.76,66.74 178.15,66.67 178.53,66.59 178.92,66.51 179.3,66.44 179.69,66.36 180.08,66.3 180.46,66.23 180.85,66.17 181.23,66.12 181.62,66.06 182.01,66.02 182.39,65.97 182.78,65.93 183.16,65.89 183.55,65.85 183.94,65.82 184.32,65.78 184.71,65.74 185.09,65.71 185.48,65.67 185.86,65.63 186.25,65.58 186.64,65.53 187.02,65.48 187.41,65.43 187.79,65.37 188.18,65.31 188.57,65.25 188.95,65.19 189.34,65.12 189.72,65.06 190.11,64.99 190.5,64.92 190.88,64.86 191.27,64.8 191.65,64.74 192.04,64.69 192.43,64.63 192.81,64.59 193.2,64.54 193.58,64.5 193.97,64.46 194.35,64.43 194.74,64.4 195.13,64.37 195.51,64.35 195.9,64.33 196.28,64.31 196.67,64.29 197.06,64.27 197.44,64.25 197.83,64.23 198.21,64.21 198.6,64.19 198.99,64.17 199.37,64.15 199.76,64.13 200.14,64.11 200.53,64.09 200.91,64.07 201.3,64.05 201.69,64.03 202.07,64.01 202.46,63.99 202.84,63.97 203.23,63.95 203.62,63.94 204,63.92 204.39,63.9 204.77,63.88 205.16,63.87 205.55,63.85 205.93,63.83 206.32,63.81 206.7,63.79 207.09,63.77 207.48,63.74 207.86,63.71 208.25,63.68 208.63,63.65 209.02,63.62 209.4,63.58 209.79,63.54 210.18,63.5 210.56,63.46 210.95,63.41 211.33,63.36 211.72,63.32 212.11,63.27 212.49,63.22 212.88,63.17 213.26,63.13 213.65,63.08 214.04,63.04 214.42,63.01 214.81,62.97 215.19,62.94 215.58,62.91 215.97,62.89 216.35,62.87 216.74,62.86 217.12,62.85 217.51,62.85 217.89,62.84 218.28,62.84 218.67,62.85 219.05,62.85 219.44,62.86 219.82,62.86 220.21,62.87 220.6,62.88 220.98,62.88 221.37,62.88 221.75,62.89 222.14,62.89 222.53,62.89 222.91,62.88 223.3,62.88 223.68,62.87 224.07,62.86 224.46,62.84 224.84,62.83 225.23,62.81 225.61,62.8 226,62.78 226.38,62.76 226.77,62.73 227.16,62.71 227.54,62.69 227.93,62.66 228.31,62.64 228.7,62.61 229.09,62.58 229.47,62.55 229.86,62.52 230.24,62.5 230.63,62.47 231.02,62.44 231.4,62.41 231.79,62.38 232.17,62.35 232.56,62.32 232.94,62.29 233.33,62.26 233.72,62.24 234.1,62.21 234.49,62.19 234.87,62.17 235.26,62.15 235.65,62.13 236.03,62.12 236.42,62.1 236.8,62.09 237.19,62.08 237.58,62.07 237.96,62.06 238.35,62.05 238.73,62.05 239.12,62.04 239.51,62.03 239.89,62.03 240.28,62.02 240.66,62.01 241.05,62 241.43,61.99 241.82,61.97 242.21,61.96 242.59,61.94 242.98,61.92 243.36,61.89 243.75,61.87 244.14,61.84 244.52,61.81 244.91,61.77 245.29,61.73 245.68,61.69 246.07,61.65 246.45,61.6 246.84,61.55 247.22,61.49 247.61,61.44 248,61.38 248.38,61.32 248.77,61.25 249.15,61.19 249.54,61.12 249.92,61.05 250.31,60.98 250.7,60.92 251.08,60.85 251.47,60.79 251.85,60.72 252.24,60.66 252.63,60.61 253.01,60.55 253.4,60.5 253.78,60.45 254.17,60.41 254.56,60.37 254.94,60.33 255.33,60.3 255.71,60.28 256.1,60.25 256.48,60.23 256.87,60.21 257.26,60.2 257.64,60.18 258.03,60.17 258.41,60.16 258.8,60.16 259.19,60.15 259.57,60.15 259.96,60.14 260.34,60.14 260.73,60.14 261.12,60.14 261.5,60.13 261.89,60.13" stroke-dasharray="none" stroke="rgb(77,175,74)" stroke-width="0.75" opacity="1" stroke-opacity="1" fill="none"/>
          </g>
        </g>
        <g id="Fig:densplot_01.panel.1.1.off.vp.2">
          <g id="Fig:densplot_01.border.panel.1.1.1">
            <rect id="Fig:densplot_01.border.panel.1.1.1.1" x="50.8" y="48.19" width="225.2" height="194.52" transform="" stroke="rgb(0,0,0)" stroke-dasharray="none" stroke-width="0.75" opacity="1" fill="none" stroke-opacity="1" fill-opacity="0"/>
          </g>
        </g>
        <g id="Fig:densplot_01..1"/>
      </g>
    </g>
  </g>
</svg>